<?xml version="1.0" encoding="UTF-8"?>
<!DOCTYPE svg PUBLIC "-//W3C//DTD SVG 1.1//EN" "http://www.w3.org/Graphics/SVG/1.1/DTD/svg11.dtd">
<!-- Creator: Corel DESIGNER -->
<svg xmlns="http://www.w3.org/2000/svg" xml:space="preserve" width="40mm" height="40mm" version="1.1" style="shape-rendering:geometricPrecision; text-rendering:geometricPrecision; image-rendering:optimizeQuality; fill-rule:evenodd; clip-rule:evenodd"
viewBox="0 0 1000 1000"
 xmlns:xlink="http://www.w3.org/1999/xlink"
 xmlns:xodm="http://www.corel.com/coreldraw/odm/2003">
 <defs>
  <style type="text/css">
   <![CDATA[
    .fil1 {fill:#0E1313}
    .fil2 {fill:#A1262D}
    .fil0 {fill:white}
   ]]>
  </style>
 </defs>
<symbol id="ISO_x0020_7010_x0020_P073" viewBox="1125 -904.17 1750 1750">
 <circle class="fil0" cx="2000" cy="-29.17" r="787.5"/>
 <path class="fil1" d="M1573.92 58.61c24.57,6.06 43.89,25.42 49.92,50l633.93 -632.8 -49.91 -50 -633.93 632.8z"/>
 <path class="fil1" d="M2502.14 217.34l-142.28 0 0 -53.52 -376.46 0 0 53.52 -375.79 0 0 -46c-12.48,13.47 -30.31,21.9 -50.12,21.9 -19.45,0 -37.01,-8.13 -49.45,-21.18 0,42.38 0,84.76 0,127.14l994.09 0 0 -81.85zm-454.9 -26.76c0,-9.64 -7.82,-17.46 -17.46,-17.46 -9.64,0 -17.46,7.82 -17.46,17.46 0,9.64 7.82,17.46 17.46,17.46 9.64,0 17.46,-7.82 17.46,-17.46zm70.97 0c0,-9.64 -7.82,-17.46 -17.46,-17.46 -9.64,0 -17.46,7.82 -17.46,17.46 0,9.64 7.82,17.46 17.46,17.46 9.64,0 17.46,-7.82 17.46,-17.46zm212.91 0c0,-9.64 -7.82,-17.46 -17.46,-17.46 -9.64,0 -17.46,7.82 -17.46,17.46 0,9.64 7.82,17.46 17.46,17.46 9.64,0 17.46,-7.82 17.46,-17.46zm-70.97 0c0,-9.64 -7.82,-17.46 -17.46,-17.46 -9.64,0 -17.46,7.82 -17.46,17.46 0,9.64 7.82,17.46 17.46,17.46 9.64,0 17.46,-7.82 17.46,-17.46zm-70.97 0c0,-9.64 -7.82,-17.46 -17.46,-17.46 -9.64,0 -17.46,7.82 -17.46,17.46 0,9.64 7.82,17.46 17.46,17.46 9.64,0 17.46,-7.82 17.46,-17.46z"/>
 <path class="fil1" d="M2288.88 -474.19c29.67,40.93 53.44,85.47 72.34,132.99 11.9,29.92 21.84,60.95 30.09,92.93l21.17 -102.28 24.41 4.98 -37.53 181.32 -130.43 -127.69 17.48 -17.78 84.46 82.69c-8.68,-36.44 -19.49,-71.52 -32.81,-105 -18.09,-45.47 -40.89,-88.19 -69.41,-127.52l20.22 -14.65z"/>
 <ellipse class="fil1" transform="matrix(0.00659987 0.822881 -0.822881 0.00659987 1557.52 127.845)" rx="65.26" ry="67.2"/>
 <path class="fil1" d="M2098.71 105.87c2.95,-58.75 -19.6,-100.34 -76.49,-146.32 -51.51,73.63 -15.45,121.7 16.95,158.29 -2.64,-23.72 -0.26,-46.08 6.87,-60.03 14.18,7.76 28.33,21.78 52.67,48.06z"/>
 <path class="fil1" d="M2244.56 105.87c-2.95,-58.75 19.6,-100.34 76.49,-146.32 51.51,73.63 15.45,121.7 -16.95,158.29 2.64,-23.72 0.26,-46.08 -6.87,-60.03 -14.18,7.76 -28.33,21.78 -52.66,48.06z"/>
 <path class="fil1" d="M1992.6 142.62c-0.29,-49.08 -50.86,-67.33 -94.44,-107.19 -24.64,101.74 10.34,140.21 58,146.7 -2.64,-23.72 -22.98,-48.49 -15.85,-62.43 19.11,2.74 22.82,17.77 52.29,22.93z"/>
 <path class="fil1" d="M2350.67 142.62c0.29,-49.08 50.86,-67.33 94.44,-107.19 24.64,101.74 -10.34,140.21 -58,146.7 2.64,-23.72 22.98,-48.49 15.85,-62.43 -19.11,2.74 -22.82,17.77 -52.29,22.93z"/>
 <path class="fil1" d="M2171.64 30.43c13.18,11.36 21.2,38.38 29.55,61.8 15.51,-58.35 11.61,-113.79 -29.55,-161.29 -41.17,47.5 -45.07,102.94 -29.56,161.29 8.35,-23.42 16.38,-50.45 29.56,-61.8z"/>
 <path class="fil2" d="M2699.14 -29.17c0,-386.12 -313.01,-699.13 -699.14,-699.13 -168.42,0 -322.92,59.55 -443.61,158.75l986.38 981.02c97.75,-120.25 156.37,-273.59 156.37,-440.64zm-1241.91 -440.64c-97.74,120.25 -156.37,273.59 -156.37,440.64 0,386.12 313.01,699.13 699.13,699.13 168.42,0 322.92,-59.56 443.61,-158.76l-986.38 -981.02zm1417.77 440.64c0,-483.25 -391.75,-875 -875,-875 -483.25,0 -875,391.75 -875,875 0,483.25 391.75,875 875,875 483.25,0 875,-391.75 875,-875z"/>
</symbol>
 <g id="Ebene_x0020_1">
  <metadata id="CorelCorpID_0Corel-Layer"/>
  <use transform="scale(0.571429 0.571429)" width="1750" height="1750" xlink:href="#ISO_x0020_7010_x0020_P073"/>
 </g>
</svg>
