<?xml version="1.0" encoding="UTF-8"?>
<!DOCTYPE svg PUBLIC "-//W3C//DTD SVG 1.1//EN" "http://www.w3.org/Graphics/SVG/1.1/DTD/svg11.dtd">
<!-- Creator: Corel DESIGNER -->
<svg xmlns="http://www.w3.org/2000/svg" xml:space="preserve" width="40mm" height="40mm" version="1.1" style="shape-rendering:geometricPrecision; text-rendering:geometricPrecision; image-rendering:optimizeQuality; fill-rule:evenodd; clip-rule:evenodd"
viewBox="0 0 4000 4000"
 xmlns:xlink="http://www.w3.org/1999/xlink"
 xmlns:xodm="http://www.corel.com/coreldraw/odm/2003">
 <defs>
  <style type="text/css">
   <![CDATA[
    .fil0 {fill:#A1262D}
    .fil1 {fill:white}
   ]]>
  </style>
 </defs>
<symbol id="ISO_x0020_7010_x0020_F019" viewBox="-1500 -3616.67 7000 7000">
 <rect class="fil0" x="-1500" y="-3616.67" width="7000" height="7000"/>
 <path class="fil1" d="M767.82 62.12l168.44 115.65 205 -298.59 -168.44 -115.65 -205 298.59zm119.92 -2274.73l141.26 -73.4 -174.81 -336.37 -141.26 73.4 174.81 336.37zm819.82 -737.08l-733.22 328.76 122.53 235.77 690.43 -411.09 -79.74 -153.44zm-994.37 2902.73c-47.35,-37.87 -86.19,-92.97 -113.04,-151.45 -27.91,-60.8 -44.43,-128.97 -44.93,-186.98l-0.02 -5.06 -0.47 0c0,-171.12 72.49,-304.28 184.08,-395.45 105.84,-86.47 246.86,-132.06 392,-133.32l6.1 -0.02 0 -0.47c198.7,0 352.9,73.63 461.6,188.49 120.7,127.55 181.15,303.87 181.15,483.9 0,204.98 -90.94,420.18 -236.63,579.08 -138.19,150.71 -326.66,253.07 -536.34,253.07 -3.78,0 -7.51,-0.18 -11.2,-0.52l-1.53 -0.02c-281.26,-2.76 -518.78,-95.58 -687.1,-250.96 -171.6,-158.44 -270.37,-379.81 -270.36,-636.1l0.05 -9.56c2.72,-274.07 115.26,-572.63 332.43,-788.09 184.6,-183.14 442.84,-307.05 770.96,-307.05 326.67,0 596.99,126.62 789.21,329.6 202.06,213.37 315.82,509.94 315.82,830.55 0,319.3 -148.36,644.77 -381.5,886.65 -223.88,232.3 -527.68,389.51 -855.84,393.13 -33.84,0.36 3,0.58 -20.15,0.58 -430.09,0 -778.93,-149.8 -1022.42,-390.79 -243.94,-241.43 -379.74,-573.46 -383.75,-937.47l-0.08 -16.17 -0.47 0c0,-390.04 159.95,-798.21 453.83,-1096.68 258.7,-262.74 620.51,-440.81 1067.6,-447.6 28.01,-0.41 10.2,-0.64 23.67,-0.64 445.87,0 826.96,188.43 1098.31,481.87 269.15,291.05 429.14,685.93 435.46,1101.9 0.43,28.63 0.65,13.4 0.65,25.22 0,444.79 -198.98,865.13 -500.87,1175.82 -308.98,318 -727.48,522.53 -1152.72,522.53 -543.62,0 -999.42,-189.47 -1324.25,-495.87 -341.56,-322.17 -536.99,-772.14 -536.99,-1266.55 0,-453.86 129.19,-858.26 384.83,-1215.1 251.88,-351.6 625.73,-654.6 1118.87,-910.87l110.62 212.82c-459.32,238.7 -805.01,517.39 -1034.49,837.73 -225.75,315.12 -339.83,673.02 -339.83,1075.42 0,427.57 167.79,815.56 461.05,1092.17 281.84,265.85 680.88,430.25 1160.19,430.25 358.97,0 715.42,-175.91 981.16,-449.41 260.63,-268.23 432.43,-629.11 432.43,-1008.94 0,-27.72 0.48,-9.63 0.29,-22.4 -5.41,-356.35 -141.98,-694.11 -371.72,-942.54 -227.53,-246.05 -547.73,-404.05 -922.99,-404.05 -28.27,0 -7.72,-0.49 -20.85,-0.3 -377.44,5.74 -682.3,155.46 -899.8,376.36 -248.95,252.83 -384.45,598.55 -384.45,928.86l-0.47 0 0.08 14.29c3.3,299.9 114.23,572.5 313.45,769.67 199.67,197.62 490.53,320.47 853.66,320.47 35.92,0 -2.72,0.58 18.27,0.36 259.25,-2.85 502.9,-130.84 685.22,-320.01 191.89,-199.08 314,-463.8 314,-720.71 0,-259.53 -89.79,-497.15 -249.26,-665.55 -148.48,-156.79 -359.23,-254.6 -615.77,-254.6 -258.53,0 -459.88,95.54 -602.2,236.73 -171.25,169.9 -260,404.86 -262.14,620.29l-0.04 7.89c0.05,186.38 70.73,346.29 193.48,459.63 126.11,116.42 308.05,186.01 526.8,188.17l0.86 0.01c3.3,-0.28 6.63,-0.42 9.99,-0.42 137.39,0 264.39,-70.89 360.08,-175.25 106.45,-116.1 172.89,-271.09 172.89,-416.9 0,-122.33 -38.25,-239.16 -114.59,-319.84 -64.9,-68.58 -160.72,-112.55 -288.16,-112.55l0 -0.47 -4.22 0.02c-92.07,0.79 -179.59,28.12 -242.94,79.88 -57.59,47.06 -95.02,117.52 -95.02,209.83l-0.47 0 0.02 3.18c0.21,25.1 8.82,57.77 23.37,89.48 12.58,27.39 28.17,51.13 44.6,64.27l-149.06 186.56z"/>
 <path class="fil1" d="M3031.5 -1814.85c400.88,170.86 319.09,817.96 565.57,1213.15 246.47,395.18 572.15,827.46 1320.29,669.25 -481.55,-263.61 -744.99,-620.78 -866.82,-989.85 -121.82,-369.07 -383.17,-992.83 -1019.04,-892.55zm-375 2676.94c439.83,7.04 574.9,403.66 934.37,699.81 359.46,296.15 736.73,498.64 1326.49,69.04 -554.22,-179.48 -758.79,-275.33 -991.76,-586.41 -232.97,-311.08 -831.22,-547.81 -1269.1,-182.44zm589.15 -1519.87c406.9,616.41 951.65,1013.85 1671.71,1132.9l0 780.59c-435.2,-112.83 -758.83,-220.75 -1201.98,-628.62 -443.14,-407.87 -501.37,-954.17 -469.73,-1284.87zm925.65 -1540.45c225.26,693.89 474.73,1053.79 746.06,1112.16l0 780.59c-287.22,-153.61 -667.66,-509.32 -773.69,-884.21 -106.04,-374.89 -55.4,-754.36 27.63,-1008.54zm-925.66 3833.87c248.69,370.72 1101.81,565.29 1671.72,366.11l0 763.32c-506.58,16.13 -913.08,-65.49 -1108.72,-172.69 -195.63,-107.2 -520.39,-427.13 -563,-956.74z"/>
</symbol>
 <g id="Ebene_x0020_1">
  <metadata id="CorelCorpID_0Corel-Layer"/>
  <use transform="scale(0.571429 0.571429)" y="-0" width="7000" height="7000" xlink:href="#ISO_x0020_7010_x0020_F019"/>
 </g>
</svg>
