<?xml version="1.0" encoding="UTF-8"?>
<!DOCTYPE svg PUBLIC "-//W3C//DTD SVG 1.1//EN" "http://www.w3.org/Graphics/SVG/1.1/DTD/svg11.dtd">
<!-- Creator: Corel DESIGNER -->
<svg xmlns="http://www.w3.org/2000/svg" xml:space="preserve" width="40mm" height="40mm" version="1.1" style="shape-rendering:geometricPrecision; text-rendering:geometricPrecision; image-rendering:optimizeQuality; fill-rule:evenodd; clip-rule:evenodd"
viewBox="0 0 4000 4000"
 xmlns:xlink="http://www.w3.org/1999/xlink"
 xmlns:xodm="http://www.corel.com/coreldraw/odm/2003">
 <defs>
  <style type="text/css">
   <![CDATA[
    .fil1 {fill:none}
    .fil0 {fill:#004873}
    .fil2 {fill:white}
   ]]>
  </style>
 </defs>
<symbol id="ISO_x0020_7010_x0020_M057" viewBox="-1500 8850 7000 7000">
 <circle class="fil0" cx="2000" cy="12350" r="3500"/>
 <path class="fil1" d="M1991.41 11583.19l390.29 72.65c172.31,32.06 352.49,34.02 529.21,10.16 182.16,-24.61 361.41,-76.82 525.08,-151.84l167.79 -76.91c116.63,-53.45 245.44,-84.15 377.45,-96.36 148.25,-13.7 300.54,-4.15 444.7,22.68l635.36 118.28 43.62 -238.04 -635.36 -118.28c-164.24,-30.57 -338.82,-41.34 -510.13,-25.51 -158.23,14.63 -313.76,51.96 -456.17,117.22l-167.79 76.91c-142.01,65.1 -297.94,110.46 -456.79,131.91 -152.27,20.56 -306.69,19.04 -453.35,-8.26l-389.63 -72.52"/>
 <path class="fil2" d="M2040.16 11381.77l292.05 54.37c387.84,72.19 658.62,-36.68 898.11,-132.99 213.96,-86.03 405.79,-163.17 641.74,-119.28l319.54 59.46 -35.94 196.1 -319.54 -59.46c-179.22,-33.34 -345.8,33.64 -531.58,108.34 -264.59,106.4 -563.72,226.67 -1008.27,143.93l-292.6 -54.47 -84.82 455.63 -259.38 -344.77 -259.39 -344.77 366.08 -228.34 366.06 -228.33 -92.06 494.58z"/>
 <path class="fil2" d="M4261.75 12062.91l-292.05 -54.37c-387.84,-72.19 -658.62,36.68 -898.11,132.99 -213.96,86.03 -405.79,163.17 -641.74,119.28l-319.54 -59.46 35.94 -196.1 319.54 59.46c179.22,33.34 345.8,-33.64 531.58,-108.34 264.59,-106.4 563.72,-226.67 1008.27,-143.93l292.6 54.47 84.82 -455.63 259.38 344.77 259.39 344.77 -366.08 228.34 -366.06 228.33 92.06 -494.58z"/>
 <polygon class="fil2" points="4086.83,12723.06 4086.83,14423.06 -109.83,14423.06 -109.83,14023.06 40.17,14023.06 40.17,11766.76 -109.83,11766.76 -109.83,10310.73 4086.83,10310.73 4086.83,10953.19 3686.83,10953.19 3686.83,10710.73 290.17,10710.73 290.17,11766.76 140.17,11766.76 140.17,14023.06 3686.83,14023.06 3686.83,12723.06 "/>
</symbol>
 <g id="Ebene_x0020_1">
  <metadata id="CorelCorpID_0Corel-Layer"/>
  <use transform="scale(0.571429 0.571429)" y="-0" width="7000" height="7000" xlink:href="#ISO_x0020_7010_x0020_M057"/>
 </g>
</svg>
