<?xml version="1.0" encoding="UTF-8"?>
<!DOCTYPE svg PUBLIC "-//W3C//DTD SVG 1.1//EN" "http://www.w3.org/Graphics/SVG/1.1/DTD/svg11.dtd">
<!-- Creator: Corel DESIGNER -->
<svg xmlns="http://www.w3.org/2000/svg" xml:space="preserve" width="40mm" height="40mm" version="1.1" style="shape-rendering:geometricPrecision; text-rendering:geometricPrecision; image-rendering:optimizeQuality; fill-rule:evenodd; clip-rule:evenodd"
viewBox="0 0 1000 1000"
 xmlns:xlink="http://www.w3.org/1999/xlink"
 xmlns:xodm="http://www.corel.com/coreldraw/odm/2003">
 <defs>
  <style type="text/css">
   <![CDATA[
    .fil0 {fill:#008E5E}
    .fil1 {fill:white}
   ]]>
  </style>
 </defs>
<symbol id="ISO_x0020_7010_x0020_E070" viewBox="1125 654.17 1750 1750">
 <polygon class="fil0" points="1125,654.17 2875,654.17 2875,2404.17 1125,2404.17 "/>
 <path class="fil1" d="M1972.41 1493.44l105.06 0c11.53,0 20.96,9.43 20.96,20.96 0,11.53 -9.43,20.96 -20.96,20.96l-100.3 0 5.84 51.45 123.8 0c11.49,0 22.55,8.47 26.84,18.91l67.75 163.1c7.74,16.01 3.38,33.94 -13.29,42.14 -18,8.85 -35.68,-1.03 -42.91,-18.48l-59.99 -144.69 -142.85 0c-1.33,0 -2.64,-0.09 -3.92,-0.25 -20.62,-1.31 -38.1,-17.32 -40.51,-38.52l-19.06 -167.9c-2.7,-23.78 14.55,-45.45 38.33,-48.15 24.66,0 45.15,11.92 48.15,38.33l7.05 62.15zm-94.58 72.29c-28.85,27.11 -46.87,65.61 -46.87,108.32 0,82.09 66.54,148.63 148.63,148.63 55.95,0 104.67,-30.92 130.03,-76.6l18.8 45.35c-34.71,43.96 -88.47,72.18 -148.83,72.18 -104.69,0 -189.56,-84.87 -189.56,-189.55 0,-64.89 32.62,-122.15 82.34,-156.32l5.45 48zm92.25 -238.83c0,-28.62 -23.2,-51.83 -51.83,-51.83 -28.62,0 -51.83,23.21 -51.83,51.83 0,28.62 23.21,51.83 51.83,51.83 28.62,0 51.83,-23.2 51.83,-51.83z"/>
 <path class="fil1" d="M1516.82 1044.47l966.37 0 0 966.37 -966.37 0 0 -966.37zm916.37 50l-866.37 0 0 866.37 866.37 0 0 -866.37z"/>
 <polygon class="fil1" points="2018.51,978.34 2018.51,881.95 2071.37,934.8 2071.37,886.18 2000,814.81 1928.63,886.18 1928.63,934.8 1981.49,881.95 1981.49,978.34 "/>
 <polygon class="fil1" points="1981.49,2076.97 1981.49,2173.37 1928.63,2120.51 1928.63,2169.14 2000,2240.51 2071.37,2169.14 2071.37,2120.51 2018.51,2173.37 2018.51,2076.97 "/>
</symbol>
 <g id="Ebene_x0020_1">
  <metadata id="CorelCorpID_0Corel-Layer"/>
  <use transform="scale(0.571429 0.571429)" y="0" width="1750" height="1750" xlink:href="#ISO_x0020_7010_x0020_E070"/>
 </g>
</svg>
