<?xml version="1.0" encoding="UTF-8"?>
<!DOCTYPE svg PUBLIC "-//W3C//DTD SVG 1.1//EN" "http://www.w3.org/Graphics/SVG/1.1/DTD/svg11.dtd">
<!-- Creator: Corel DESIGNER -->
<svg xmlns="http://www.w3.org/2000/svg" xml:space="preserve" width="40mm" height="39.9999mm" version="1.1" style="shape-rendering:geometricPrecision; text-rendering:geometricPrecision; image-rendering:optimizeQuality; fill-rule:evenodd; clip-rule:evenodd"
viewBox="0 0 1000 1000"
 xmlns:xlink="http://www.w3.org/1999/xlink"
 xmlns:xodm="http://www.corel.com/coreldraw/odm/2003">
 <defs>
  <style type="text/css">
   <![CDATA[
    .fil0 {fill:#004873}
    .fil1 {fill:white}
   ]]>
  </style>
 </defs>
<symbol id="ISO_x0020_7010_x0020_M056" viewBox="1125 2212.5 1750 1750">
 <circle class="fil0" cx="2000" cy="3087.5" r="875"/>
 <path class="fil1" d="M1760.62 3173.18c0,-46.6 -37.78,-84.38 -84.38,-84.38 -46.6,0 -84.38,37.78 -84.38,84.38 0,46.6 37.78,84.38 84.38,84.38 46.6,0 84.38,-37.78 84.38,-84.38z"/>
 <path class="fil1" d="M1475.61 3597.73l85.81 0 0 -188.01c0,-7.83 12.07,-7.83 12.07,0l0 188.01 205.5 0 0 -188.01c0,-7.83 12.07,-7.83 12.07,0l0 188.01 85.81 0c0,-64.21 0,-128.41 0,-192.62 0,-68.7 -56.21,-124.92 -124.91,-124.92 -50.47,0 -100.95,0 -151.43,0 -68.7,0 -124.91,56.22 -124.91,124.92 0,64.21 0,128.41 0,192.62z"/>
 <polygon class="fil1" points="2399.69,2746.73 2505.8,2766.48 2517.03,2705.2 2399.69,2683.36 "/>
 <path class="fil1" d="M2562.12 2893.09l-139.23 -25.92c-7.68,-1.43 -15.41,-2.62 -23.2,-3.6l0 62.88c4.01,0.59 8,1.26 11.97,2l139.06 25.89 -21.76 116.92 94.24 -58.78 94.24 -58.78 -66.78 -88.76 -66.78 -88.76 -21.76 116.92z"/>
 <path class="fil1" d="M1969.23 2541.12l335.45 0 0 631.83 -335.45 -61.36 0 -66.99c-20.99,-0.27 -41.92,-1.85 -62.5,-4.6l0 123.48 460.45 84.23 0 -769.1 -429.2 0 -31.25 0 0 244.27c20.94,-0.93 41.94,-3.72 62.5,-8.17l0 -173.6z"/>
 <path class="fil1" d="M1969.23 2844.23c-20.7,3.33 -41.61,5.38 -62.5,6.07l0 60.92c20.16,3.54 41.25,5.7 62.5,6.08l0 -73.07z"/>
 <path class="fil1" d="M1815.96 2811.28c90.16,16.78 188.39,1.59 271.42,-36.47l43.2 -19.8c43.43,-19.91 92.94,-27.4 141.61,-26.31l0 -62.3c-57.45,-1.1 -115.75,8.25 -167.49,31.96l-43.2 19.8c-71.34,32.7 -156.8,46.26 -234.31,31.83l-139.06 -25.88 21.76 -116.92 -188.48 117.57 133.55 177.51 21.77 -116.92 139.23 25.92z"/>
 <path class="fil1" d="M1896.62 2942.41l-163.57 -30.45 -11.23 61.28 163.57 30.45c81.63,15.19 172.47,11.35 248.77,-23.61l43.2 -19.8c30.05,-13.77 62.12,-23.97 94.84,-30.25l0 -63.31c-41.66,6.93 -82.58,19.43 -120.72,36.91l-43.2 19.8c-64.59,29.6 -142.69,31.81 -211.65,18.97z"/>
</symbol>
 <g id="Ebene_x0020_1">
  <metadata id="CorelCorpID_0Corel-Layer"/>
  <use transform="scale(0.571429 0.571429)" y="-0" width="1750" height="1750" xlink:href="#ISO_x0020_7010_x0020_M056"/>
 </g>
</svg>
