<?xml version="1.0" encoding="UTF-8"?>
<!DOCTYPE svg PUBLIC "-//W3C//DTD SVG 1.1//EN" "http://www.w3.org/Graphics/SVG/1.1/DTD/svg11.dtd">
<!-- Creator: Corel DESIGNER -->
<svg xmlns="http://www.w3.org/2000/svg" xml:space="preserve" width="40mm" height="40mm" version="1.1" style="shape-rendering:geometricPrecision; text-rendering:geometricPrecision; image-rendering:optimizeQuality; fill-rule:evenodd; clip-rule:evenodd"
viewBox="0 0 1000 1000"
 xmlns:xlink="http://www.w3.org/1999/xlink"
 xmlns:xodm="http://www.corel.com/coreldraw/odm/2003">
 <defs>
  <style type="text/css">
   <![CDATA[
    .fil0 {fill:#A1262D}
    .fil1 {fill:white}
   ]]>
  </style>
 </defs>
<symbol id="ISO_x0020_7010_x0020_F018" viewBox="1125 -904.17 1750 1750">
 <rect class="fil0" x="1125" y="-904.17" width="1750" height="1750"/>
 <path class="fil1" d="M1414.82 376.93l453.38 0 0 -163.6 -67.94 0 0 -312.66c0,-87.31 -71.44,-158.75 -158.75,-158.75l-0 0c-87.32,0 -158.75,71.44 -158.75,158.75l0 312.66 -67.94 0 0 163.6zm457.81 -488.76l118.52 0 0 25 -118.52 0 0 -25zm-22.38 -87.49l109.49 -45.36 9.57 23.1 -109.5 45.36 -9.57 -23.1zm-54.16 -72.27l83.8 -83.81 17.68 17.68 -83.8 83.81 -17.68 -17.68zm-77.69 -46.05l45.36 -109.5 23.1 9.57 -45.35 109.5 -23.1 -9.57zm-89.4 -12.81l0 -118.52 25 0 0 118.52 -25 0zm-87.5 22.38l-45.36 -109.5 23.1 -9.57 45.36 109.5 -23.1 9.57zm-72.27 54.16l-83.8 -83.81 17.68 -17.68 83.81 83.81 -17.68 17.68zm-46.05 77.69l-109.49 -45.35 9.57 -23.1 109.49 45.35 -9.57 23.1zm-12.81 89.4l-118.52 0 0 -25 118.52 0 0 25z"/>
 <path class="fil1" d="M2257.88 -453.71c100.22,42.72 79.77,204.49 141.39,303.29 61.62,98.8 143.04,206.87 330.07,167.31 -120.39,-65.9 -186.25,-155.19 -216.7,-247.46 -30.46,-92.27 -95.79,-248.21 -254.76,-223.14zm-93.75 669.24c109.96,1.76 143.72,100.91 233.59,174.95 89.86,74.04 184.18,124.66 331.62,17.26 -138.56,-44.87 -189.7,-68.83 -247.94,-146.6 -58.24,-77.77 -207.8,-136.95 -317.28,-45.61zm147.29 -379.97c101.72,154.1 237.91,253.46 417.93,283.22l0 195.15c-108.8,-28.21 -189.71,-55.19 -300.49,-157.16 -110.79,-101.97 -125.34,-238.54 -117.43,-321.22zm231.41 -385.11c56.32,173.47 118.68,263.45 186.52,278.04l0 195.15c-71.81,-38.4 -166.91,-127.33 -193.42,-221.05 -26.51,-93.72 -13.85,-188.59 6.91,-252.13zm-231.41 958.47c62.17,92.68 275.45,141.32 417.93,91.53l0 190.83c-126.64,4.03 -228.27,-16.37 -277.18,-43.17 -48.91,-26.8 -130.1,-106.78 -140.75,-239.19z"/>
</symbol>
 <g id="Ebene_x0020_1">
  <metadata id="CorelCorpID_0Corel-Layer"/>
  <use transform="scale(0.571429 0.571429)" width="1750" height="1750" xlink:href="#ISO_x0020_7010_x0020_F018"/>
 </g>
</svg>
