<?xml version="1.0" encoding="UTF-8"?>
<!DOCTYPE svg PUBLIC "-//W3C//DTD SVG 1.1//EN" "http://www.w3.org/Graphics/SVG/1.1/DTD/svg11.dtd">
<!-- Creator: Corel DESIGNER -->
<svg xmlns="http://www.w3.org/2000/svg" xml:space="preserve" width="40mm" height="34.9578mm" version="1.1" style="shape-rendering:geometricPrecision; text-rendering:geometricPrecision; image-rendering:optimizeQuality; fill-rule:evenodd; clip-rule:evenodd"
viewBox="0 0 4000 3495.78"
 xmlns:xlink="http://www.w3.org/1999/xlink"
 xmlns:xodm="http://www.corel.com/coreldraw/odm/2003">
 <defs>
  <style type="text/css">
   <![CDATA[
    .fil0 {fill:#F5CA2B}
    .fil1 {fill:#21251E}
   ]]>
  </style>
 </defs>
<symbol id="ISO_x0020_7010_x0020_W078" viewBox="-1500 -9770.02 7000 6117.6">
 <polygon class="fil0" points="5290.4,-3863.86 -1288.06,-3863.85 2001.17,-9560.99 "/>
 <path class="fil1" d="M-922.41 -4073.84l2922.41 -5061.74 2922.4 5061.74 -5844.81 0zm6213.22 421.41l-6581.62 0.01c-161.14,0 -261.32,-173.49 -180.75,-313.05l3290.81 -5699.88c80.57,-139.55 280.93,-139.55 361.5,0l3290.81 5699.87c80.57,139.56 -19.61,313.05 -180.75,313.05z"/>
 <polygon class="fil1" points="4407.06,-4498.67 -407.05,-4498.67 -522.52,-4298.67 4522.53,-4298.67 "/>
 <polygon class="fil1" points="2109.11,-4747.12 2109.11,-5275.28 2280.99,-5275.28 2000.01,-5592.66 1719.02,-5275.28 1890.9,-5275.28 1890.9,-4747.12 "/>
 <polygon class="fil1" points="960.15,-4747.12 960.15,-5275.28 1132.03,-5275.28 851.05,-5592.66 570.06,-5275.28 741.94,-5275.28 741.94,-4747.12 "/>
 <polygon class="fil1" points="3258.07,-4747.12 3258.07,-5275.28 3429.95,-5275.28 3148.97,-5592.66 2867.98,-5275.28 3039.86,-5275.28 3039.86,-4747.12 "/>
 <path class="fil1" d="M755.13 -6137.02c139.92,0 262.38,-54.49 384.84,-108.98 102.27,-45.5 204.55,-91.02 303.58,-91.02 99.02,0 201.31,45.52 303.58,91.02 122.44,54.48 244.91,108.98 384.83,108.98 139.92,0 262.38,-54.49 384.84,-108.98 102.27,-45.5 204.55,-91.02 303.58,-91.02 99.02,0 201.31,45.52 303.58,91.02 107.97,48.04 215.97,96.1 335.93,106.79l-138.24 -239.44c-38.69,-14.8 -77.56,-32.1 -116.43,-49.39 -122.46,-54.49 -244.92,-108.98 -384.84,-108.98 -139.92,0 -262.39,54.5 -384.84,108.98 -102.27,45.5 -204.56,91.02 -303.58,91.02 -99.02,0 -201.31,-45.52 -303.57,-91.02 -122.46,-54.49 -244.92,-108.98 -384.84,-108.98 -139.92,0 -262.39,54.5 -384.84,108.98 -102.27,45.5 -204.56,91.02 -303.58,91.02 -31.01,0 -62.34,-4.46 -93.89,-11.99l-103.1 178.57c62.8,20.08 127.76,33.42 196.99,33.42zm303.58 91.32c-102.27,45.5 -204.56,91.02 -303.58,91.02 -90.14,0 -182.99,-37.72 -276.06,-78.81l-100.24 173.62c119.61,53.19 239.63,105.19 376.3,105.19 139.92,0 262.38,-54.49 384.84,-108.98 102.27,-45.5 204.55,-91.02 303.58,-91.02 99.02,0 201.31,45.52 303.58,91.02 122.44,54.48 244.91,108.98 384.83,108.98 139.92,0 262.38,-54.49 384.84,-108.98 102.27,-45.5 204.55,-91.02 303.58,-91.02 99.02,0 201.31,45.52 303.58,91.02 122.44,54.48 244.91,108.98 384.83,108.98 56.07,0 110.36,-6.25 163.43,-16.77l-107.41 -186.03c-18.69,1.82 -37.36,2.8 -56.02,2.8 -99.02,0 -201.31,-45.52 -303.57,-91.02 -122.46,-54.49 -244.92,-108.98 -384.84,-108.98 -139.92,0 -262.39,54.5 -384.84,108.98 -102.27,45.5 -204.56,91.02 -303.58,91.02 -99.02,0 -201.31,-45.52 -303.57,-91.02 -122.46,-54.49 -244.92,-108.98 -384.84,-108.98 -139.92,0 -262.39,54.5 -384.84,108.98z"/>
</symbol>
 <g id="Ebene_x0020_1">
  <metadata id="CorelCorpID_0Corel-Layer"/>
  <use transform="scale(0.571429 0.571429)" y="0.01" width="7000" height="6117.6" xlink:href="#ISO_x0020_7010_x0020_W078"/>
 </g>
</svg>
