<?xml version="1.0" encoding="UTF-8"?>
<!DOCTYPE svg PUBLIC "-//W3C//DTD SVG 1.1//EN" "http://www.w3.org/Graphics/SVG/1.1/DTD/svg11.dtd">
<!-- Creator: Corel DESIGNER -->
<svg xmlns="http://www.w3.org/2000/svg" xml:space="preserve" width="40mm" height="34.9578mm" version="1.1" style="shape-rendering:geometricPrecision; text-rendering:geometricPrecision; image-rendering:optimizeQuality; fill-rule:evenodd; clip-rule:evenodd"
viewBox="0 0 2000 1747.89"
 xmlns:xlink="http://www.w3.org/1999/xlink"
 xmlns:xodm="http://www.corel.com/coreldraw/odm/2003">
 <defs>
  <style type="text/css">
   <![CDATA[
    .fil0 {fill:#F5CA2B}
    .fil1 {fill:#21251E}
   ]]>
  </style>
 </defs>
<symbol id="ISO_x0020_7010_x0020_W075" viewBox="-3750 -1713.79 3500 3058.8">
 <polygon class="fil0" points="-354.8,1239.29 -3644.03,1239.29 -1999.41,-1609.28 "/>
 <polygon class="fil0" points="-354.8,1239.29 -3644.03,1239.29 -1999.41,-1609.28 "/>
 <path class="fil1" d="M-3461.2 1134.3l1461.2 -2530.87 1461.2 2530.87 -2922.4 0zm3106.61 210.7l-3290.81 0.01c-80.57,0 -130.66,-86.75 -90.38,-156.53l1645.4 -2849.94c40.28,-69.78 140.46,-69.78 180.75,0l1645.4 2849.94c40.29,69.78 -9.8,156.52 -90.38,156.52z"/>
 <path class="fil1" d="M-1497.32 529.89c47.12,89.96 153.94,241.47 287.68,323.09 120.17,73.33 292.89,75.39 313.88,171.8l-1093.96 0 -1112.09 0c25.46,-46.2 83.88,-125.46 160.11,-97.96 85.6,-181.18 235.2,-144.27 308.39,-221.47 93.79,-98.94 57.22,-187.68 157.39,-281.56 72.03,-67.52 193.56,-102.9 213.26,-192.87 14.7,-67.15 80.73,-211.1 131.11,-265.52 47.76,-54.76 -5.32,136.65 -30.66,226.01 1.76,14.31 25.69,-11.94 38.6,-30.37 17.33,-24.75 28.56,-47.27 40.34,-68.4 19.05,-34.15 20.11,-53.42 45.36,-81.32 17.1,-18.9 35.95,-19.91 54.58,-3.38 30.14,26.75 19.36,45.03 36.04,87.6 16.33,41.7 2.22,58.24 18.62,96.12 14.12,32.63 13.93,59.51 23.36,87.98 10.35,31.25 24.23,56.04 33.37,38.89 7.65,-36.76 -9.88,-48.77 -10.65,-82.58 -2.44,-27.36 58.11,43.15 76.74,88.75 40.83,99.91 68,142 115.1,178.99 37.07,7.25 6.62,-42.75 -41.79,-99.87 -16.3,-19.23 -11.92,-54.02 -25.95,-77.12 -31.3,-51.53 -77.55,-98.18 -85.22,-130.02 -20.04,-83.2 -40.29,-157.11 -61.93,-238.55 6.5,-45.06 91.84,102.06 134.68,182.45 53,99.49 64.75,111.19 133.09,192.57 65.51,78.02 78.38,77.98 140.58,196.74zm109.23 -88.88l134.63 -5.01 34.28 55.19 -33.45 71.91 -86.97 0 -48.5 -122.09zm-218.25 -363.75l102.85 0 -64.39 77.77 -61.05 0 22.58 -77.77zm-1197.93 503.51l31.61 29.35 -13.55 48.17 -39.89 0 -34.62 -40.64 6.03 -27.1 50.42 -9.79zm152.03 -283.73l111.38 -15.8 30.86 46.66 -30.86 68.49 -74.51 0 -36.88 -99.35zm115.76 -255.64l72.47 -48.8 16.5 48.8 -38.75 31.57 -50.23 -31.57zm266.7 -579.91l-31.26 32.15 32.15 39.29 39.3 -47.33 -33.93 -9.83 -6.25 -14.28zm111.31 415.11c-131.45,-347.75 -292.81,-402.28 -448.7,-433.21l-72.54 125.64c151.08,14.5 317.08,51.62 521.24,307.57zm-273.39 -736.85c205.03,155.96 289.32,374.31 387.99,685.24 -6.03,-293.12 -121.4,-636 -290.34,-854.37l-97.64 169.13zm511.42 -612.27c-15.93,458.61 -43.22,1067.64 -41.25,1289.33 35.68,-187.36 117.45,-625.78 192.46,-1027.43l-151.21 -261.9zm293.5 508.36c-102.87,168.34 -219.93,384.11 -246.9,841.67 88.45,-228.82 259.4,-391.24 423.64,-535.53l-59 -102.2c-71.55,98.8 -154.62,202.23 -263.11,316.59 53.57,-179.84 128.98,-301.67 207.37,-413.14l-62 -107.38z"/>
</symbol>
 <g id="Ebene_x0020_1">
  <metadata id="CorelCorpID_0Corel-Layer"/>
  <use transform="scale(0.571429 0.571429)" y="0" width="3500" height="3058.8" xlink:href="#ISO_x0020_7010_x0020_W075"/>
 </g>
</svg>
