<?xml version="1.0" encoding="UTF-8"?>
<!DOCTYPE svg PUBLIC "-//W3C//DTD SVG 1.1//EN" "http://www.w3.org/Graphics/SVG/1.1/DTD/svg11.dtd">
<!-- Creator: Corel DESIGNER -->
<svg xmlns="http://www.w3.org/2000/svg" xml:space="preserve" width="40mm" height="40mm" version="1.1" style="shape-rendering:geometricPrecision; text-rendering:geometricPrecision; image-rendering:optimizeQuality; fill-rule:evenodd; clip-rule:evenodd"
viewBox="0 0 1000 1000"
 xmlns:xlink="http://www.w3.org/1999/xlink"
 xmlns:xodm="http://www.corel.com/coreldraw/odm/2003">
 <defs>
  <style type="text/css">
   <![CDATA[
    .fil0 {fill:#008E5E}
    .fil1 {fill:white}
   ]]>
  </style>
 </defs>
<symbol id="ISO_x0020_7010_x0020_E065" viewBox="1125 -2462.5 1750 1750">
 <polygon class="fil0" points="2875,-2462.5 1125,-2462.5 1125,-712.5 2875,-712.5 "/>
 <path class="fil1" d="M1769.31 -1762.69l181.87 0c24.02,-0.59 32.47,-5.45 47.87,-24.05l73.26 -88.48 70.18 162.62 -232.89 477 93.69 0.17c28.93,-0.9 45.42,-13.83 58.36,-37.98 66.11,-123.42 126.32,-254.34 194.83,-375.02l23.47 194.41c2.51,23.32 31.1,58.13 70.49,57.16l383.54 0c-0.54,-26.86 -19.24,-57.13 -38.55,-74.31 -27.24,-24.24 -69.85,-35.65 -115.32,-35.65l-176.3 0c-4.04,0 -7.74,-4.93 -8.19,-8.95l-24.38 -216.72c-1.96,-17.43 -7.59,-34.54 -15.05,-50.42l-76.61 -163.1 96.89 0c8.62,0 10.26,3.76 12.47,7.31l80.45 129.34c32.34,51.99 115.49,14.14 77.72,-50.14l-72.74 -123.8c-22.28,-37.91 -38,-51.23 -93.53,-51.36l-259.36 0c-48.67,3.67 -68.16,16.49 -89.59,43.7l-106.19 134.85 -156.38 0c-61.44,0 -61.44,93.41 0,93.41zm332.42 -295.02c53.91,-4.68 93.82,-51.9 89.17,-105.47 -4.66,-53.57 -52.12,-93.2 -106.02,-88.51 -53.9,4.68 -93.82,51.9 -89.17,105.47 4.65,53.57 52.12,93.2 106.03,88.51z"/>
 <path class="fil1" d="M1843.71 -1475.18c-317.39,0 -574.68,123.36 -574.68,275.53 0,152.17 257.29,275.53 574.68,275.53 317.39,0 574.68,-123.36 574.68,-275.53 0,-95.01 -100.3,-178.79 -252.9,-228.32 -27.74,55.2 -55.41,110.45 -84.57,164.89 -16.89,31.53 -40.61,48.38 -76.96,49.51l-0.72 0.01 -128.64 -0.24 122.76 -251.42c-48.91,-6.49 -100.43,-9.96 -153.64,-9.96z"/>
 <path class="fil1" d="M1843.71 -1475.18c-317.39,0 -574.68,123.37 -574.68,275.54 0,152.17 257.29,275.53 574.68,275.53 317.39,0 574.68,-123.36 574.68,-275.53 0,-94.38 -98.98,-177.68 -249.9,-227.34 -1,-0.33 -2,-0.66 -3,-0.98 -27.74,55.2 -55.41,110.45 -84.57,164.89 -16.89,31.53 -40.61,48.38 -76.96,49.51l-0.72 0.01 -128.65 -0.24 122.76 -251.43c-1.09,-0.14 -2.18,-0.29 -3.27,-0.43 -47.93,-6.21 -98.35,-9.53 -150.38,-9.53z"/>
</symbol>
 <g id="Ebene_x0020_1">
  <metadata id="CorelCorpID_0Corel-Layer"/>
  <use transform="scale(0.571429 0.571429)" y="0" width="1750" height="1750" xlink:href="#ISO_x0020_7010_x0020_E065"/>
 </g>
</svg>
