<?xml version="1.0" encoding="UTF-8"?>
<!DOCTYPE svg PUBLIC "-//W3C//DTD SVG 1.1//EN" "http://www.w3.org/Graphics/SVG/1.1/DTD/svg11.dtd">
<!-- Creator: Corel DESIGNER -->
<svg xmlns="http://www.w3.org/2000/svg" xml:space="preserve" width="40mm" height="40mm" version="1.1" style="shape-rendering:geometricPrecision; text-rendering:geometricPrecision; image-rendering:optimizeQuality; fill-rule:evenodd; clip-rule:evenodd"
viewBox="0 0 1000 1000"
 xmlns:xlink="http://www.w3.org/1999/xlink"
 xmlns:xodm="http://www.corel.com/coreldraw/odm/2003">
 <defs>
  <style type="text/css">
   <![CDATA[
    .fil0 {fill:#008E5E}
    .fil1 {fill:white}
   ]]>
  </style>
 </defs>
<symbol id="ISO_x0020_7010_x0020_E067" viewBox="1125 2212.5 1750 1750">
 <polygon class="fil0" points="2875,2212.5 1125,2212.5 1125,3962.5 2875,3962.5 "/>
 <polygon class="fil1" points="2423.56,2370.43 2569.28,2370.43 2569.28,2516.47 2715.31,2516.47 2715.31,2662.18 2569.28,2662.18 2569.28,2808.21 2423.56,2808.21 2423.56,2662.18 2277.53,2662.18 2277.53,2516.47 2423.56,2516.47 "/>
 <path class="fil1" d="M1603.24 3771.54l1114.66 0 0 34.82 -1114.66 0 -34.82 0 0 -123.76 -152.45 0 0 -122.13 -133.66 0 0 -34.82 168.48 0 0 122.13 152.46 0 0 123.76zm936.02 -728.87c-17.74,-28.8 -55.48,-37.77 -84.28,-20.03 -28.8,17.74 -37.77,55.47 -20.03,84.28 17.74,28.8 55.47,37.77 84.28,20.03 28.8,-17.75 37.77,-55.48 20.03,-84.28zm-1034.76 412.55c-26.75,-20.79 -31.58,-59.31 -10.8,-86.06 20.78,-26.75 59.31,-31.58 86.06,-10.8 26.75,20.78 31.58,59.31 10.8,86.06 -20.79,26.75 -59.31,31.58 -86.06,10.8zm139.28 180.8l107.5 -138.36 -68.29 -53.06c-24.36,-18.93 -59.77,-14.48 -78.7,9.88 -18.92,24.36 -14.48,59.77 9.88,78.7l49.36 38.35 -24.8 31.91 -236.73 -183.87c-9.26,-7.2 -22.6,-5.52 -29.8,3.74 -7.2,9.26 -5.53,22.6 3.73,29.8l298.54 231.87c26.03,20.22 54,34.51 83.83,42.84 29.73,8.31 61,10.57 93.74,6.78l417.58 -48.42c11.64,-1.33 20,-11.85 18.68,-23.49 -0.08,-0.71 -0.2,-1.4 -0.34,-2.09l125.73 -198.79c2.03,-3.22 1.29,-7.39 -1.55,-9.76l-1.3 -1.08 105.12 -98.94c4.93,-4.02 8.63,-9.6 10.23,-16.22l8.45 -34.95 30.06 93.5c0.62,1.94 1.35,3.82 2.16,5.64l-99.16 138.28c-1.7,2.37 -3.15,5.07 -4.2,7.78l-68.61 178.56c-6.8,17.69 2.24,37.78 20.08,44.63 3.99,1.53 8.1,2.28 12.16,2.31l0.59 0c13.77,-0.12 26.82,-8.41 32.04,-22.02l67.01 -174.4 23.99 -33.45 -6.46 18.66c-1.66,4.81 -2.18,9.76 -1.7,14.54 0.41,4.97 1.91,9.92 4.62,14.5l97.29 164.7c9.96,16.85 31.76,22.82 47.44,12 15.63,-10.79 22.09,-30.92 12.39,-47.34l-89.12 -150.86 57.29 -165.58c3.97,-11.49 2.86,-29.71 -1.16,-42.24l-60.72 -188.86c-9.43,-29.33 -41.14,-45.61 -70.47,-36.18 -17.99,5.79 -31.07,19.96 -36.32,36.82 -0.44,1.15 -0.81,2.35 -1.11,3.58l-33.19 137.2 -105.68 99.48 -0.83 -0.68c-3.19,-2.64 -7.91,-2.19 -10.55,1 -0.68,0.82 -1.15,1.75 -1.43,2.72l-75 230.67c-3.4,-1.57 -7.26,-2.25 -11.25,-1.79l-180.98 20.99 -4.12 -34.72 128.46 -15.26c18.96,-2.25 32.4,-19.74 30.16,-38.62 -2.26,-19 -19.52,-32.71 -38.36,-30.48l-152.28 18.09 15.06 126.75 -38.53 4.58 -15.06 -126.75 -153.07 18.19c-3.63,-7.72 -9.07,-14.72 -16.24,-20.28l-57.91 -45 -107.51 138.36 -30.64 -23.8zm88.26 -11.27l38.98 30.29c18.32,14.23 42.88,15.25 62,4.52l160.53 -19.07 4.1 34.49 -150.42 17.44c-27.39,3.18 -53.29,1.36 -77.63,-5.45 -21.73,-6.07 -42.5,-16.22 -62.25,-30.45l24.69 -31.77zm572.66 -18.62l51.78 -159.26c1.34,3.04 3.22,5.9 5.62,8.45 8.76,9.3 22.16,11.8 33.39,7.28l-90.78 143.54z"/>
</symbol>
 <g id="Ebene_x0020_1">
  <metadata id="CorelCorpID_0Corel-Layer"/>
  <use transform="scale(0.571429 0.571429)" y="-0" width="1750" height="1750" xlink:href="#ISO_x0020_7010_x0020_E067"/>
 </g>
</svg>
