<?xml version="1.0" encoding="UTF-8"?>
<!DOCTYPE svg PUBLIC "-//W3C//DTD SVG 1.1//EN" "http://www.w3.org/Graphics/SVG/1.1/DTD/svg11.dtd">
<!-- Creator: Corel DESIGNER -->
<svg xmlns="http://www.w3.org/2000/svg" xml:space="preserve" width="40mm" height="40mm" version="1.1" style="shape-rendering:geometricPrecision; text-rendering:geometricPrecision; image-rendering:optimizeQuality; fill-rule:evenodd; clip-rule:evenodd"
viewBox="0 0 1000 1000"
 xmlns:xlink="http://www.w3.org/1999/xlink"
 xmlns:xodm="http://www.corel.com/coreldraw/odm/2003">
 <defs>
  <style type="text/css">
   <![CDATA[
    .fil0 {fill:#004873}
    .fil1 {fill:white}
   ]]>
  </style>
 </defs>
<symbol id="ISO_x0020_7010_x0020_M059" viewBox="1125 654.16 1750 1750">
 <circle class="fil0" cx="2000" cy="1529.17" r="875"/>
 <path class="fil1" d="M1982.73 1178.69l-144.77 -324.67 -53.1 0c-62.81,0 -116.24,35.4 -136.92,94.7l-225.43 646.57 153.09 37.82 178.3 -491.68 -145.88 990.57c117.32,25.49 242.52,39.94 374.72,44.61l0 -997.92zm-222.86 541.73l156.04 0 0 25 -156.04 0 0 -25zm392.63 -866.4l-144.77 324.67 0 997.92c132.2,-4.67 257.4,-19.12 374.72,-44.61l-145.89 -990.57 178.3 491.68 153.09 -37.82 -225.43 -646.57c-20.67,-59.3 -74.11,-94.7 -136.92,-94.7l-53.1 0zm32.91 282.3l-104.09 0 0 -43.54 104.09 0 0 43.54zm-110.87 584.1l156.04 0 0 25 -156.04 0 0 -25zm-79.32 -574.88l117.38 -263.24c-31.23,16.03 -71.08,23.1 -117.38,25 -46.3,-1.89 -86.15,-8.97 -117.38,-25l117.38 263.24z"/>
</symbol>
 <g id="Ebene_x0020_1">
  <metadata id="CorelCorpID_0Corel-Layer"/>
  <use transform="scale(0.571429 0.571429)" y="-0" width="1750" height="1750" xlink:href="#ISO_x0020_7010_x0020_M059"/>
 </g>
</svg>
