<?xml version="1.0" encoding="UTF-8"?>
<!DOCTYPE svg PUBLIC "-//W3C//DTD SVG 1.1//EN" "http://www.w3.org/Graphics/SVG/1.1/DTD/svg11.dtd">
<!-- Creator: Corel DESIGNER -->
<svg xmlns="http://www.w3.org/2000/svg" xml:space="preserve" width="40mm" height="40mm" version="1.1" style="shape-rendering:geometricPrecision; text-rendering:geometricPrecision; image-rendering:optimizeQuality; fill-rule:evenodd; clip-rule:evenodd"
viewBox="0 0 4000 4000"
 xmlns:xlink="http://www.w3.org/1999/xlink"
 xmlns:xodm="http://www.corel.com/coreldraw/odm/2003">
 <defs>
  <style type="text/css">
   <![CDATA[
    .fil1 {fill:#0E1313}
    .fil2 {fill:#A1262D}
    .fil0 {fill:white}
   ]]>
  </style>
 </defs>
<symbol id="ISO_x0020_7010_x0020_P074" viewBox="-1500 -3616.67 7000 7000">
 <circle class="fil0" cx="2000" cy="-116.67" r="3150"/>
 <path class="fil1" d="M-124.02 -1239l0 620.96 358.65 2120.81 1649.93 0 89.94 -248.73c2.43,-6.58 3.18,-13.08 2.38,-19.13 -0.76,-5.72 -3.21,-11.65 -7.3,-17.47 -4.01,-5.71 -8.85,-10.05 -14.24,-12.85 -5.25,-2.73 -11.55,-4.16 -18.63,-4.16l-1391.24 0 -7.74 -51.09c-56.31,-371.59 -123.55,-708.73 -209.65,-1020.69 -86.03,-311.68 -191.12,-599.49 -323.24,-873.01l-7.37 -15.26 37.12 -357.94c1.69,-16.36 0.21,-31.71 -4.38,-45.78 -4.53,-13.92 -12.39,-27.14 -23.46,-39.42 -11.11,-12.32 -23.47,-21.52 -36.8,-27.45 -13.1,-5.82 -28.16,-8.79 -44.93,-8.79l-49.04 0zm-120 625.24l0 -745.24 169.04 0c33.12,0 64.51,6.59 93.69,19.57 28.95,12.88 54.81,31.79 77.1,56.51 22.34,24.77 38.5,52.45 48.3,82.54 9.76,29.91 12.98,61.75 9.54,95l-33.63 324.3c131.78,275.37 237,564.9 323.38,877.85 83.89,303.95 149.88,628.93 205.08,983.66l1288.23 0c26.53,0 51.52,6.1 73.95,17.76 22.28,11.58 41.58,28.56 56.88,50.35 15.22,21.68 24.59,45.72 27.94,70.91 3.3,24.78 0.52,50.21 -8.48,75.14 0,12.42 -100.67,278.65 -118.59,328.18l-1834.94 0 -377.49 -2232.25 0 -4.28z"/>
 <circle class="fil1" cx="2635.07" cy="-978.76" r="308.55"/>
 <path class="fil1" d="M1098.47 823.04c-92.33,60.4 -216.17,34.52 -276.57,-57.81 -60.4,-92.33 -34.52,-216.17 57.81,-276.57l338.37 -222.05c33.79,-22.11 71.8,-32.64 109.38,-32.6l0 -0.21 461.48 0 586.93 -748.22c68.17,-86.72 193.75,-101.76 280.47,-33.59 86.72,68.17 101.76,193.75 33.59,280.47l-640.5 816.5c-36.2,51.32 -95.95,84.84 -163.52,84.84l-499.07 0 -288.37 189.24z"/>
 <path class="fil1" d="M4432.44 -116.67c0,-173.28 -17.97,-341.89 -52.12,-504.05 -31.44,-149.3 -76.74,-293.83 -134.46,-432.13 -149.47,47.11 -286.34,132.21 -397.37,246.87 -119.19,123.08 -208.72,280.16 -252.36,460.8l-0.13 0.54c-62.86,260.79 -18.33,521.37 104.5,731.77 118.77,203.45 310.66,359.8 549.1,423.61 56.61,-137.18 101.06,-280.72 131.95,-429.24 33.35,-160.29 50.89,-326.92 50.89,-498.17zm65.06 -528.43c36,170.93 54.94,347.73 54.94,528.43 0,178.56 -18.51,353.38 -53.71,522.55 -36.04,173.25 -89.7,340.13 -158.97,498.63l-19.72 45.1 -61.39 -13.39 -0.47 -0.23 -14.41 -3.43c-282.21,-68.03 -508.76,-248.39 -646.87,-484.97 -136.41,-233.66 -186.64,-522.44 -119.03,-811.92l1.87 -7.98c48.87,-202.78 149.28,-379.05 282.97,-517.11 138.54,-143.06 312.82,-245.26 502.6,-293.65l49.02 -12.51 20.59 46.5c70.72,159.72 125.61,328.4 162.58,503.98z"/>
 <path class="fil1" d="M2168.12 960.95c423.07,-408.07 790.44,-756.89 989.92,-1211.56 19.79,-45.12 50.7,-122.94 57.97,-189.97 11.31,-104.22 12.48,-208.44 6.21,-312.66 -1.93,-32.12 -25.86,-57.93 -57.88,-61.42 -32.02,-3.49 -61.3,16.47 -69.76,47.56 -53.99,198.48 -140.26,360.04 -267.43,524.98 -9.64,19.03 -21.28,37.4 -34.94,54.82l-638.71 814.22c-62.03,85.88 -161.26,136.88 -267.59,136.88l-460.22 0 -300.43 197.15 1042.86 0z"/>
 <path class="fil2" d="M4796.54 -116.67c0,-1544.49 -1252.05,-2796.54 -2796.54,-2796.54 -673.67,0 -1291.7,238.22 -1774.43,635.02l3945.51 3924.07c391,-481 625.46,-1094.36 625.46,-1762.55zm-4967.62 -1762.56c-390.98,481.02 -625.46,1094.37 -625.46,1762.56 0,1544.49 1252.05,2796.54 2796.54,2796.54 673.67,0 1291.67,-238.25 1774.43,-635.03l-3945.51 -3924.07zm5671.08 1762.56c0,-1933 -1567,-3500 -3500,-3500 -1933,0 -3500,1567 -3500,3500 0,1933 1567,3500 3500,3500 1933,0 3500,-1567 3500,-3500z"/>
</symbol>
 <g id="Ebene_x0020_1">
  <metadata id="CorelCorpID_0Corel-Layer"/>
  <use transform="scale(0.571429 0.571429)" width="7000" height="7000" xlink:href="#ISO_x0020_7010_x0020_P074"/>
 </g>
</svg>
