<?xml version="1.0" encoding="UTF-8"?>
<!DOCTYPE svg PUBLIC "-//W3C//DTD SVG 1.1//EN" "http://www.w3.org/Graphics/SVG/1.1/DTD/svg11.dtd">
<!-- Creator: Corel DESIGNER -->
<svg xmlns="http://www.w3.org/2000/svg" xml:space="preserve" width="40mm" height="34.9578mm" version="1.1" style="shape-rendering:geometricPrecision; text-rendering:geometricPrecision; image-rendering:optimizeQuality; fill-rule:evenodd; clip-rule:evenodd"
viewBox="0 0 4000 3495.78"
 xmlns:xlink="http://www.w3.org/1999/xlink"
 xmlns:xodm="http://www.corel.com/coreldraw/odm/2003">
 <defs>
  <style type="text/css">
   <![CDATA[
    .fil0 {fill:#F5CA2B}
    .fil1 {fill:#21251E}
   ]]>
  </style>
 </defs>
<symbol id="ISO_x0020_7010_x0020_W074" viewBox="-1500 -3427.58 7000 6117.6">
 <polygon class="fil0" points="5290.4,2478.58 -1288.06,2478.59 2001.17,-3218.55 "/>
 <path class="fil1" d="M-922.41 2268.6l2922.41 -5061.74 2922.4 5061.74 -5844.81 0zm6213.22 421.41l-6581.62 0.01c-161.14,0 -261.32,-173.49 -180.75,-313.05l3290.81 -5699.88c80.57,-139.55 280.93,-139.55 361.5,0l3290.81 5699.87c80.57,139.56 -19.61,313.05 -180.75,313.05z"/>
 <path class="fil1" d="M3450.66 -367.12l-813.28 -1408.64c-236.65,-19.56 -513.41,-9.82 -826.84,30.61 -183.87,23.72 -358.78,56.76 -522.11,97.88l-904.7 1566.97c67.97,44.39 145.78,83.07 233.62,114.3 4.16,169.86 108.51,286.69 275.62,371.72 -90.67,171.66 14.7,310.67 201.69,382.3 -134.58,161.06 -43.91,301.95 164.35,360.33 -132.06,154.6 -23.85,292.72 224.73,322.88 42.61,43.67 88.56,94.55 121.1,138.5 94.06,127.07 197.95,245.81 318.48,345.88l486.29 0c-219.94,-152.2 -390.67,-403.72 -361.86,-600.25 125.41,-46.81 301.9,-237.18 182.94,-356.46 195.57,-105.21 290.21,-240 202.29,-371.8 171.04,-96.49 287.84,-212.27 321.62,-325.96 227.51,-124.88 339.29,-237.14 373.83,-399.07 143.92,-72.28 248.09,-165.44 322.23,-269.19zm-1570.22 -736.48c861.71,-111.18 1513.42,297.29 1225.1,736.26 -128.12,-333.34 -676.02,-460.85 -1283.54,-382.49 -481.85,62.14 -835.96,229.95 -1044.78,443.44 -209.07,-494.8 785.42,-756.22 1103.22,-797.21zm-838.81 1332.34c-114.69,-364.08 550.04,-540.22 793.64,-571.64 648.19,-83.63 1170.37,177.08 925.73,512.04 -88.38,-209.14 -488.36,-294.73 -945.39,-235.81 -362.46,46.73 -599.23,140.41 -773.98,295.41zm721.28 6.47c491.96,-82.83 928.29,103.17 622.95,326.95 -218.78,-215.93 -977.15,-136.74 -1214.47,115.22 -169.54,-208.42 202.08,-376.6 591.52,-442.17zm-79.46 493.85c418.31,-88.44 656.26,44.33 475.04,205.38 -224.11,-107.98 -663.11,-33.89 -822,116.29 -199.73,-122.91 148.37,-279.68 346.96,-321.67zm25.54 383.34c245.48,-54.85 451.35,25.26 328.67,135.9 -176.08,-77.34 -467.49,-29.29 -581.25,124.67 -144.77,-95.57 34.66,-204 252.58,-260.57z"/>
</symbol>
 <g id="Ebene_x0020_1">
  <metadata id="CorelCorpID_0Corel-Layer"/>
  <use transform="scale(0.571429 0.571429)" y="0.01" width="7000" height="6117.6" xlink:href="#ISO_x0020_7010_x0020_W074"/>
 </g>
</svg>
