<?xml version="1.0" encoding="UTF-8"?>
<!DOCTYPE svg PUBLIC "-//W3C//DTD SVG 1.1//EN" "http://www.w3.org/Graphics/SVG/1.1/DTD/svg11.dtd">
<!-- Creator: Corel DESIGNER -->
<svg xmlns="http://www.w3.org/2000/svg" xml:space="preserve" width="40mm" height="40mm" version="1.1" style="shape-rendering:geometricPrecision; text-rendering:geometricPrecision; image-rendering:optimizeQuality; fill-rule:evenodd; clip-rule:evenodd"
viewBox="0 0 3986.84 3986.84"
 xmlns:xlink="http://www.w3.org/1999/xlink"
 xmlns:xodm="http://www.corel.com/coreldraw/odm/2003">
 <defs>
  <style type="text/css">
   <![CDATA[
    .fil0 {fill:#008E5E}
    .fil1 {fill:white}
   ]]>
  </style>
 </defs>
<symbol id="ISO_x0020_7010_x0020_E068" viewBox="-1488.49 8823.57 6976.98 6976.98">
 <polygon class="fil0" points="5488.49,8823.57 -1488.49,8823.57 -1488.49,15800.55 5488.49,15800.55 "/>
 <path class="fil1" d="M-636 11227.8c-158.02,71.21 -83.44,213.98 -33.92,240.77 26.84,14.52 59.89,11.2 87.24,13.8 12.55,24.68 25.58,47.29 41.39,65.88 60.72,71.36 147.22,46.38 170.75,48.24 6.84,20.2 0.29,32.28 -18.19,75.13 -11.19,25.94 -18.12,48.69 -19.61,82.53 -2.84,64.32 16.25,111.51 47.62,156.2 93.39,133 115.64,93.22 80.16,290.74 92.53,-86.5 121.02,-157.8 68.17,-323.38 -43.82,-137.23 37.88,-243.03 131.64,-290.18 189.72,-95.4 142.14,69.27 326.06,2.46 217.15,-81.77 128.35,-260.44 143.64,-284.79 100.58,-89.01 264.8,-43.11 312.36,-126.38 30.38,-53.18 5.93,-112.95 -40.25,-138.14 -71.54,-39.03 -122.27,-5.14 -189.23,-5.58 41.35,-99.96 226.56,-59.78 330.99,-169.35 48.96,-51.36 61.72,-111.4 11.46,-174.38 -43.96,-55.09 -104.75,-57.67 -195.52,-61.98 94.13,-55.95 170.78,-164.6 95.45,-265.63 -75.54,-101.31 -188.07,-80.65 -340.09,-60.58 -72.03,0.2 -267.63,-215.44 -480.03,-21.59 -59.69,56.4 -43.92,84.81 -80.87,138.69 -91.75,133.72 -318.35,-75.8 -452.97,171.38 -35.81,65.74 -20.89,108.45 -26.25,193.06 -4.73,74.82 -48.22,58.84 -110.93,96.2 -115.32,68.69 -186.63,277.78 140.93,346.88zm188.58 124.55c2.7,48.8 26.39,99.12 75.46,116.42 43.14,15.19 165.57,21.55 170.07,-13.03 4.98,-38.36 -40.35,-18.15 -87.15,-28.88 -29.83,-6.85 -91.79,-53.66 -68.94,-87.04 7.93,-11.6 35.84,7.58 66.56,16.57 39.65,11.59 84.06,17.29 96.35,-7.26 14.61,-29.17 -74.21,-19.34 -131.44,-78.78 -56.62,-58.82 -9.23,-120.27 -43.93,-128.98 -29.42,-7.38 -31.77,37.39 -34.18,62.2 -2.37,24.45 17.2,67.25 -0.36,72.64 -32.89,10.09 -79.81,-11.14 -103.82,-45.02 -37.46,-52.86 -20.94,-91.13 -57.83,-93.37 -32.86,-2 -28.81,81.3 -15.48,113.6 19.98,48.35 74.66,85.89 134.68,100.95zm499.26 -962.58c-20.42,50.35 110.71,50.3 100.44,133.46 -2.65,21.48 -31.25,20.19 -50.16,28.29 -33.5,14.33 -79.36,32.33 -58.03,72.7 13.86,26.22 114.21,-29.4 205.74,14.93 104.73,48.92 63.57,119.59 85.17,148.8 27.91,37.77 74.9,-59.55 39.21,-139.56 -30.55,-80.28 -76.07,-90.5 -109.56,-109.58 -15.38,-39.23 -31.61,-81.67 -86.5,-127 -43.9,-36.25 -117.49,-43.77 -126.3,-22.04zm52.71 944c-19.46,36.93 -104.51,-8.96 -110.22,27.36 -4.94,31.49 57.16,45.35 113.58,35.96 67.33,-11.21 61.78,-44.76 104.41,-75.62 12.52,-9.06 56,-15.49 95.83,-50.64 39.21,-34.62 62.53,-76.85 43.6,-97.51 -17.14,-18.69 -41.85,16.83 -83.84,50.71 -32.07,25.86 -94.86,45.45 -137.85,21.15 -39.7,-22.45 -87.35,-31.85 -94.7,0.24 -10.97,47.93 83.92,60.39 69.19,88.35zm-614.57 -375.9c17.1,-13.61 -0.26,-64.56 9.28,-112.68 7.41,-37.32 37.97,-75.11 88,-101.91 47,-25.2 78.24,-35.7 60.14,-55.56 -50.21,-55.07 -148.36,25.83 -175.44,66.29 -14.13,21.12 -34.25,70.33 -38.01,114.03 -4.3,49.93 17.95,120.11 56.04,89.82zm746.41 65.82c-11.37,18.54 8.98,39.53 42.45,46.31 33.02,6.69 75.33,-0.61 100.19,-12.29 58.45,-27.44 81.3,-107.03 74.43,-151.12 -4.37,-28.05 -18.06,-41 -43.31,-19.46 -19.14,16.34 -17.47,48.07 -31.88,74.12 -15.78,28.51 -44.44,46.34 -68.19,50.12 -32.75,5.21 -59.88,-10.2 -73.69,12.32zm309.77 -335.09c19.1,-7.72 12.2,-97.09 -29.12,-142.13 -47.74,-52.06 -109.76,-78.82 -148.05,-55.11 -66.9,42.33 80.08,24.16 127.49,148.47 18.42,37.75 25.57,58.53 49.69,48.77z"/>
 <path class="fil1" d="M3555.87 12040.15c-15.42,-18.43 -12.99,-45.88 5.44,-61.29 18.43,-15.42 45.88,-12.98 61.29,5.45l270.47 322.39c15.42,18.43 12.99,45.88 -5.44,61.29 -18.43,15.41 -45.88,12.99 -61.29,-5.44l-270.47 -322.4zm151.28 -202.17c-10.62,-21.54 -1.78,-47.62 19.74,-58.24 21.54,-10.61 47.61,-1.77 58.24,19.75l186.52 377.23c10.61,21.53 1.77,47.61 -19.75,58.23 -21.53,10.61 -47.61,1.77 -58.23,-19.75l-186.52 -377.22zm217.19 -123.81c-5.26,-23.39 9.45,-46.66 32.86,-51.92 23.39,-5.26 46.66,9.45 51.92,32.85l93.68 410.27c5.25,23.39 -9.46,46.66 -32.86,51.92 -23.4,5.26 -46.66,-9.45 -51.93,-32.85l-93.67 -410.27zm236.6 -36.31c0,-23.97 19.45,-43.41 43.42,-43.41 23.97,0 43.41,19.44 43.41,43.41l0.01 420.82c0,23.97 -19.44,43.41 -43.41,43.41 -23.97,0 -43.42,-19.44 -43.42,-43.41l-0.01 -420.82zm625.19 306.46c15.42,-18.43 42.86,-20.87 61.29,-5.45 18.43,15.41 20.86,42.86 5.45,61.29l-270.47 322.4c-15.41,18.43 -42.86,20.85 -61.29,5.44 -18.43,-15.41 -20.86,-42.86 -5.45,-61.29l270.47 -322.39zm-162.52 -184.82c10.61,-21.53 36.7,-30.37 58.23,-19.75 21.53,10.61 30.37,36.7 19.74,58.24l-186.51 377.22c-10.61,21.53 -36.7,30.37 -58.23,19.75 -21.53,-10.61 -30.37,-36.7 -19.75,-58.23l186.52 -377.23zm-224.01 -104.4c5.27,-23.4 28.53,-38.11 51.93,-32.85 23.4,5.26 38.11,28.53 32.86,51.92l-93.67 410.27c-5.26,23.4 -28.52,38.11 -51.93,32.85 -23.4,-5.26 -38.11,-28.53 -32.85,-51.92l93.66 -410.27zm43.63 756.49c0,-131.91 -106.94,-238.86 -238.86,-238.86 -131.92,0 -238.86,106.95 -238.86,238.86 0,101 62.67,187.35 151.25,222.29l0 176 175.21 0 0 -176c88.59,-34.93 151.26,-121.29 151.26,-222.29zm-379.52 554.96l281.31 0 0 -85.05 -281.31 0 0 85.05z"/>
 <path class="fil1" d="M2593.87 12999.6c0,-362.76 -294.07,-656.84 -656.83,-656.84 -362.76,0 -656.84,294.08 -656.84,656.84 0,362.76 294.08,656.84 656.84,656.84 362.76,0 656.83,-294.08 656.83,-656.84zm-2997.91 -760.75l317.48 0 0 733.36c0,64.21 -38.62,119.82 -93.79,144.76 -1.24,83.67 6.3,231.06 101.89,259.17 201.45,59.27 322.24,-268.68 456.31,-376.83 81.5,-65.73 161.57,-88.08 244.8,-96.92 -79.17,-135.82 -124.54,-293.74 -124.54,-462.28 0,-507.91 411.75,-919.68 919.67,-919.68 201.52,0 387.86,64.83 539.38,174.75 151.51,-109.92 337.85,-174.75 539.35,-174.75 507.91,0 919.67,411.76 919.67,919.68 0,180.79 -52.2,349.39 -142.32,491.56 104.56,5.15 202.71,20.34 303.03,101.26 134.08,108.14 254.87,436.1 456.31,376.83 100.03,-29.42 103.64,-189.43 101.67,-270.4 -2.14,-91.47 136.76,-94.73 138.93,-3.28 3.6,151.08 -20.41,353.92 -201.38,407.16 -312.89,92.04 -469.66,-310.7 -582.72,-401.88 -57.12,-46.07 -121.44,-62.12 -188.8,-68.52 73.43,132.09 115.26,284.15 115.26,446.02 0,507.9 -411.75,919.67 -919.67,919.67 -201.51,0 -387.85,-64.84 -539.37,-174.75 -151.52,109.92 -337.86,174.75 -539.36,174.75 -507.91,0 -919.67,-411.76 -919.67,-919.67 0,-174.7 48.74,-338 133.33,-477.11 -59.21,7.83 -115.66,25.07 -166.42,66 -113.06,91.18 -269.83,493.92 -582.72,401.88 -176.98,-52.06 -203.83,-247.19 -201.56,-397.08 -50.31,-26.7 -84.79,-79.69 -84.79,-140.34l0 -733.36zm2065.14 1986.04c-76.27,26.28 -158.12,40.56 -243.31,40.56 -412.33,0 -746.61,-334.27 -746.61,-746.6 0,-85.18 14.29,-167.02 40.57,-243.28 105.85,471.96 477.36,843.49 949.35,949.32zm1514.35 -1017.03c43.45,94.68 67.68,200 67.68,310.99 0,412.33 -334.28,746.6 -746.61,746.6 -91.16,0 -178.51,-16.35 -259.26,-46.25 482.56,-118.4 855.47,-515.75 938.19,-1011.34zm-2458 -508.51c-29.91,-80.75 -46.27,-168.08 -46.27,-259.22 0,-412.34 334.28,-746.61 746.61,-746.61 110.98,0 216.31,24.23 310.98,67.68 -495.58,82.74 -892.92,455.61 -1011.32,938.15zm1457.05 -933c97.49,-46.69 206.7,-72.83 322.02,-72.83 412.33,0 746.61,334.27 746.61,746.61 0,115.31 -26.15,224.5 -72.84,322 -96.31,-503.05 -492.71,-899.47 -995.78,-995.77z"/>
</symbol>
 <g id="Ebene_x0020_1">
  <metadata id="CorelCorpID_0Corel-Layer"/>
  <use transform="scale(0.571429 0.571429)" y="-0" width="6976.98" height="6976.98" xlink:href="#ISO_x0020_7010_x0020_E068"/>
 </g>
</svg>
