<?xml version="1.0" encoding="UTF-8"?>
<!DOCTYPE svg PUBLIC "-//W3C//DTD SVG 1.1//EN" "http://www.w3.org/Graphics/SVG/1.1/DTD/svg11.dtd">
<!-- Creator: Corel DESIGNER -->
<svg xmlns="http://www.w3.org/2000/svg" xml:space="preserve" width="40mm" height="34.9578mm" version="1.1" style="shape-rendering:geometricPrecision; text-rendering:geometricPrecision; image-rendering:optimizeQuality; fill-rule:evenodd; clip-rule:evenodd"
viewBox="0 0 1000 873.94"
 xmlns:xlink="http://www.w3.org/1999/xlink"
 xmlns:xodm="http://www.corel.com/coreldraw/odm/2003">
 <defs>
  <style type="text/css">
   <![CDATA[
    .fil0 {fill:#F5CA2B}
    .fil1 {fill:#21251E}
   ]]>
  </style>
 </defs>
<symbol id="ISO_x0020_7010_x0020_W073" viewBox="1125 -856.9 1750 1529.4">
 <polygon class="fil0" points="2822.6,619.64 1177.99,619.65 2000.29,-804.64 "/>
 <path class="fil1" d="M1269.4 567.15l730.6 -1265.43 730.6 1265.43 -1461.2 0zm1553.3 105.35l-1645.4 0c-40.29,0 -65.33,-43.37 -45.19,-78.26l822.7 -1424.97c20.14,-34.89 70.23,-34.89 90.38,0l822.7 1424.97c20.14,34.89 -4.9,78.26 -45.19,78.26z"/>
 <path class="fil1" d="M1647.16 180.43c13.22,-81.79 15.95,-217.98 127.12,-291.27 111.17,-73.29 167.37,-35.25 241.23,-60.74 73.86,-25.48 91.01,-64.52 104.72,-78.84 1.11,46.22 -22.96,103.5 -55.57,149.9 42.1,-14.47 109.07,-65.36 114.93,-92.12 6.13,34.67 -1.87,75.42 -31.62,124.22 33.97,-5.78 76.52,-31.85 95.15,-69.14 7.94,39.94 -11.69,142.62 -79.4,177.74 7.61,-23.26 13.92,-45.36 9.18,-66.61 -15.98,23.18 -150.57,132.78 -282.14,134.74 62.05,-64.41 73.83,-103.96 66.85,-127.64 -66.63,43.35 -136.54,38 -195.66,76.79 -80.44,52.78 -91.69,87.15 -114.78,122.97z"/>
 <polygon class="fil1" points="2090.03,328.5 1882.67,213.07 1845.07,234 1870.69,248.26 1882.67,241.59 2037.85,327.96 2037.85,468.27 1961.26,468.27 1961.26,493.27 2062.85,493.27 2062.85,333.59 2090.03,333.59 "/>
 <polygon class="fil1" points="2210.57,328.5 2003.21,213.07 1965.61,234 1991.23,248.26 2003.21,241.59 2158.39,327.96 2158.39,468.27 2081.8,468.27 2081.8,493.27 2183.39,493.27 2183.39,333.59 2210.57,333.59 "/>
 <polygon class="fil1" points="1575.88,493.27 1936.26,493.27 1936.26,333.59 1963.43,333.59 1963.43,328.5 1864.32,273.33 1756.08,213.07 1647.82,273.33 1548.71,328.5 1548.71,333.59 1575.88,333.59 "/>
 <path class="fil1" d="M2356.94 432.21l19.02 0 0 -140.99c15.16,2.3 36.05,4.81 63.99,7.59 -24.5,-25.42 -44.8,-51.81 -58.56,-79.71 11.17,4.77 23.51,7.21 36.33,8.68 -18.53,-18.98 -32.34,-39.79 -40.13,-62.91 6.77,1.93 15.95,3.24 26.03,4.34 -16.97,-18.72 -32.59,-42.2 -46.67,-71.04 -14.08,28.84 -29.7,52.32 -46.68,71.04 10.08,-1.1 19.26,-2.41 26.03,-4.34 -7.79,23.12 -21.6,43.92 -40.13,62.91 12.82,-1.46 25.16,-3.91 36.33,-8.68 -13.76,27.9 -34.06,54.29 -58.57,79.71 27.94,-2.77 48.82,-5.29 63.99,-7.59l0 140.99 19.02 0z"/>
 <path class="fil1" d="M2024.96 196.56l86.3 48.04c-7.78,-11.08 -14.61,-22.39 -20.32,-33.96 11.17,4.77 23.51,7.21 36.33,8.68 -18.53,-18.98 -32.34,-39.79 -40.13,-62.9 6.77,1.93 15.95,3.24 26.03,4.34 -16.97,-18.71 -32.59,-42.2 -46.67,-71.04 -14.08,28.84 -29.7,52.32 -46.68,71.04 10.08,-1.09 19.26,-2.41 26.03,-4.34 -4.79,14.22 -11.86,27.56 -20.9,40.14z"/>
 <path class="fil1" d="M2185.74 170.69c-13.76,27.9 -34.06,54.29 -58.57,79.71 27.94,-2.78 48.82,-5.29 63.99,-7.59l0 46.27 38.04 21.17 0 -67.44c15.16,2.3 36.05,4.81 63.99,7.59 -24.51,-25.42 -44.81,-51.81 -58.57,-79.71 11.17,4.77 23.51,7.22 36.33,8.68 -18.53,-18.98 -32.34,-39.79 -40.13,-62.91 6.77,1.93 15.95,3.24 26.03,4.34 -16.98,-18.72 -32.59,-42.2 -46.68,-71.04 -14.08,28.84 -29.7,52.32 -46.68,71.04 10.08,-1.09 19.26,-2.41 26.03,-4.34 -7.79,23.12 -21.6,43.92 -40.13,62.91 12.83,-1.46 25.16,-3.91 36.33,-8.68z"/>
</symbol>
 <g id="Ebene_x0020_1">
  <metadata id="CorelCorpID_0Corel-Layer"/>
  <use transform="scale(0.571429 0.571429)" y="0" width="1750" height="1529.4" xlink:href="#ISO_x0020_7010_x0020_W073"/>
 </g>
</svg>
