<?xml version="1.0" encoding="UTF-8"?>
<!DOCTYPE svg PUBLIC "-//W3C//DTD SVG 1.1//EN" "http://www.w3.org/Graphics/SVG/1.1/DTD/svg11.dtd">
<!-- Creator: Corel DESIGNER -->
<svg xmlns="http://www.w3.org/2000/svg" xml:space="preserve" width="40mm" height="40mm" version="1.1" style="shape-rendering:geometricPrecision; text-rendering:geometricPrecision; image-rendering:optimizeQuality; fill-rule:evenodd; clip-rule:evenodd"
viewBox="0 0 4000 4000"
 xmlns:xlink="http://www.w3.org/1999/xlink"
 xmlns:xodm="http://www.corel.com/coreldraw/odm/2003">
 <defs>
  <style type="text/css">
   <![CDATA[
    .fil0 {fill:#004873}
    .fil1 {fill:white}
   ]]>
  </style>
 </defs>
<symbol id="ISO_x0020_7010_x0020_M060" viewBox="-1500 2616.66 7000 7000">
 <circle class="fil0" cx="2000" cy="6116.66" r="3500"/>
 <path class="fil1" d="M107.96 4134.38c0,-181.43 147.08,-328.51 328.51,-328.51 181.43,0 328.5,147.08 328.5,328.51 0,181.43 -147.07,328.51 -328.5,328.51 -181.43,0 -328.51,-147.08 -328.51,-328.51zm2553.38 3495.59c0,-90.63 -73.47,-164.1 -164.1,-164.1 -90.63,0 -164.1,73.47 -164.1,164.1 0,90.63 73.47,164.1 164.1,164.1 90.63,0 164.1,-73.47 164.1,-164.1zm1996.64 -450.87c0,-90.63 -73.47,-164.1 -164.1,-164.1 -90.63,0 -164.1,73.47 -164.1,164.1 0,90.63 73.47,164.1 164.1,164.1 90.63,0 164.1,-73.47 164.1,-164.1zm-146.2 368.49l-3528.17 796.86c-314.3,70.98 -628.96,7.01 -882.7,-153.23 -253.87,-160.31 -446.97,-417.06 -517.98,-731.47l-2.73 -12.47c-66.53,-310.13 -2.17,-619.84 155.95,-870.23 160.33,-253.88 417.07,-446.97 731.47,-517.99l4239.28 -957.46c23.39,62.35 44.65,125.71 63.78,190.02l-4259.3 961.98c-260.55,58.85 -473.43,219.04 -606.47,429.71 -133.13,210.81 -186.31,472 -127.44,732.67l0.08 0.35c58.9,260.4 219.04,473.16 429.62,606.13 210.81,133.13 472,186.32 732.68,127.45l3690.42 -833.5c-36.11,79.04 -75.66,156.16 -118.49,231.18zm-3888.97 519.73l0 -1736.37 -89.4 20.19c-102.14,23.07 -197.75,64.01 -283.29,120.01l0 1460.06c3.46,2.26 6.94,4.49 10.44,6.7 110.98,70.08 234.7,113.9 362.25,129.41zm-177.22 -2105.8l293.93 -66.39 0 -554.29 115.79 169.23c47.31,69.15 139.76,89.95 211.78,50.45l722.91 -328.48c23.85,-10.86 43.76,-26.83 59.11,-46.06l159.17 1.05 199.75 376.43 151.28 -34.16 -120.12 -226.37 1944.23 -220.56 3.93 34.05 146.92 -33.19 -10.64 -92.17c-4.66,-40.93 -41.58,-70.42 -82.57,-65.91l-2077.28 235.65 -44.38 -83.63c-13.38,-25.42 -39.34,-39.95 -66.21,-39.97l-175.35 -0.17c-2.05,-6.72 -4.56,-13.37 -7.55,-19.92 -37.02,-81.18 -133.68,-117.21 -214.9,-80.28l-609.64 277.01 -339.06 -495.53c-21.54,-31.46 -49.95,-78.2 -82.09,-99.75 -51.16,-40.38 -115.64,-64.54 -185.48,-64.54 -165.24,0 -300.43,135.2 -300.43,300.43l0 1063.94c0,49.88 12.32,97.01 34.07,138.52 86.19,-41.73 177.59,-73.88 272.83,-95.39zm2912.52 -248.35l-765.55 255.71 -39.24 -73.94 -151.27 34.17 245.97 463.55c20.15,37.99 32.72,77.97 30.13,113.1l-0.02 0.3c-1.76,23.73 -11.58,46.17 -32.85,64.62l-267.59 232.11c-58.92,51.11 -88.76,123.26 -91.87,198.02 -2.21,53.4 9.52,108.58 34.3,158.12 25.03,50.04 63.39,94.45 114.15,125.73 67.8,41.79 156.19,59.9 262.02,36l2003.04 -452.4c40.28,-9.06 65.6,-49.08 56.54,-89.36 -9.06,-40.28 -49.08,-65.6 -89.36,-56.54l-2003.04 452.4c-63.78,14.4 -114.17,5.27 -150.68,-17.24 -26.1,-16.08 -45.98,-39.21 -59.07,-65.39 -13.36,-26.71 -19.68,-56.54 -18.48,-85.46 1.46,-35.27 14.58,-68.48 40.31,-90.8l267.59 -232.11c54.51,-47.28 79.76,-105.23 84.41,-166.86 4.88,-65.57 -14.92,-133.28 -47.11,-193.96l-116.82 -220.15 1660.02 -554.47c30.42,-8.13 52.45,-34.59 55.19,-65.69l-1020.72 230.54z"/>
</symbol>
 <g id="Ebene_x0020_1">
  <metadata id="CorelCorpID_0Corel-Layer"/>
  <use transform="scale(0.571429 0.571429)" y="-0.01" width="7000" height="7000" xlink:href="#ISO_x0020_7010_x0020_M060"/>
 </g>
</svg>
