<?xml version="1.0" encoding="UTF-8"?>
<!DOCTYPE svg PUBLIC "-//W3C//DTD SVG 1.1//EN" "http://www.w3.org/Graphics/SVG/1.1/DTD/svg11.dtd">
<!-- Creator: Corel DESIGNER -->
<svg xmlns="http://www.w3.org/2000/svg" xml:space="preserve" width="40mm" height="40mm" version="1.1" style="shape-rendering:geometricPrecision; text-rendering:geometricPrecision; image-rendering:optimizeQuality; fill-rule:evenodd; clip-rule:evenodd"
viewBox="0 0 2000 2000"
 xmlns:xlink="http://www.w3.org/1999/xlink"
 xmlns:xodm="http://www.corel.com/coreldraw/odm/2003">
 <defs>
  <style type="text/css">
   <![CDATA[
    .fil0 {fill:#004873}
    .fil1 {fill:white}
   ]]>
  </style>
 </defs>
<symbol id="ISO_x0020_7010_x0020_M058" viewBox="-3750 4425 3500 3499.99">
 <circle class="fil0" cx="-2000" cy="6175" r="1750"/>
 <path class="fil1" d="M-2824.06 7111.84c6.97,8.72 21.51,8.19 28.01,-2.05 9.86,-15.54 22.11,-29.19 35.84,-41.69l196.15 200.03c-37.12,38.98 -91.82,80.49 -159.86,90.48 -291.45,-156.15 -487.03,-400.75 -575.26,-719.4 24.7,-64.18 77.24,-108.4 123.42,-136.05l151.99 235.35c-15.21,10.64 -31.22,19.58 -48.55,25.78 -11.41,4.09 -15.13,18.16 -8.16,26.88l256.41 320.66zm-334.5 -618.4c21.37,-11.41 40.23,-19.01 52.66,-23.19 3.84,-1.29 7.93,0.14 10.13,3.55l131.74 204c2.3,3.57 1.76,8.16 -1.33,11.09 -13.91,13.21 -27.94,26.15 -42.59,37.8l-150.62 -233.23zm413.38 561.83c14.58,-11.73 30.3,-22.57 46.24,-33.24 3.52,-2.36 8.14,-1.88 11.11,1.14l170.03 173.39c2.82,2.89 3.33,7.2 1.22,10.66 -6.81,11.21 -18.38,27.93 -34.2,46.27l-194.39 -198.23z"/>
 <path class="fil1" d="M-2764.76 5512.38c0,-77.83 -63.1,-140.93 -140.93,-140.93 -77.84,0 -140.93,63.1 -140.93,140.93 0,77.83 63.09,140.93 140.93,140.93 77.83,0 140.93,-63.1 140.93,-140.93zm-312.54 395.06l0 315.89 343.23 0 0 -315.89c0,-13.08 20.15,-13.08 20.15,0l0 315.89 143.32 0c0,-107.86 0,-215.73 0,-323.6 0,-114.74 -93.89,-208.62 -208.64,-208.62 -84.3,0 -168.6,0 -252.9,0 -114.76,0 -208.64,93.89 -208.64,208.62 0,107.87 0,215.73 0,323.6l143.32 0 0 -315.89c0,-13.08 20.16,-13.08 20.16,0z"/>
 <path class="fil1" d="M-1513.66 6956.86c-32.28,9.02 -66,-9.79 -74.95,-41.8l-90.23 -323.08 -62.82 -224.88 -25.99 225.62c-0.54,4.68 -1.71,9.65 -3.36,14.09l-115.91 314.77c-11.49,31.19 -46.61,47.23 -78.06,35.65 -31.45,-11.57 -47.78,-46.57 -36.3,-77.76l113.39 -307.95 37.56 -325.98c1.87,-16.25 2.24,-28.12 3.77,-43.56l34.21 -346.19c5.31,-53.76 53.64,-93.4 107.41,-88.1 22.63,2.24 42.76,12.1 58.09,26.77 2.59,2.12 5.01,4.51 7.21,7.18l139.52 168.7 190.28 -108.3c25.35,-14.43 57.89,-5.57 72.36,19.77 14.47,25.34 5.59,57.93 -19.76,72.36l-225.63 128.41c-22.28,15.01 -53.01,10.97 -70.46,-10.13l-74.13 -89.65 -23.57 238.48c-0.38,3.85 -0.99,7.62 -1.8,11.31 0.4,1.16 0.78,2.33 1.11,3.53l90.24 323.06 90.24 323.07c8.94,32.01 -10.14,65.57 -42.42,74.59zm-285.53 -1336.36c5.84,-59.03 58.42,-102.16 117.45,-96.32 59.04,5.84 102.16,58.42 96.33,117.44 -5.84,59.04 -58.42,102.17 -117.45,96.34 -59.03,-5.84 -102.16,-58.42 -96.33,-117.45z"/>
 <polygon class="fil1" points="-2249.84,5347.82 -962.15,5347.82 -962.15,7007.49 -2249.84,7007.49 -2249.84,6420.63 -2324.84,6420.63 -2324.84,7082.49 -887.15,7082.49 -887.15,5272.82 -2287.34,5272.82 -2324.84,5272.82 -2324.84,5533.96 -2249.84,5533.96 "/>
</symbol>
 <g id="Ebene_x0020_1">
  <metadata id="CorelCorpID_0Corel-Layer"/>
  <use transform="scale(0.571429 0.571429)" y="0" width="3500" height="3499.99" xlink:href="#ISO_x0020_7010_x0020_M058"/>
 </g>
</svg>
