<?xml version="1.0" encoding="UTF-8"?>
<!DOCTYPE svg PUBLIC "-//W3C//DTD SVG 1.1//EN" "http://www.w3.org/Graphics/SVG/1.1/DTD/svg11.dtd">
<!-- Creator: Corel DESIGNER -->
<svg xmlns="http://www.w3.org/2000/svg" xml:space="preserve" width="40mm" height="40mm" version="1.1" style="shape-rendering:geometricPrecision; text-rendering:geometricPrecision; image-rendering:optimizeQuality; fill-rule:evenodd; clip-rule:evenodd"
viewBox="0 0 2001.87 2001.87"
 xmlns:xlink="http://www.w3.org/1999/xlink"
 xmlns:xodm="http://www.corel.com/coreldraw/odm/2003">
 <defs>
  <style type="text/css">
   <![CDATA[
    .fil0 {fill:#008E5E}
    .fil1 {fill:white}
   ]]>
  </style>
 </defs>
<symbol id="ISO_x0020_7010_x0020_E069" viewBox="-3751.63 4428.19 3503.27 3503.27">
 <rect class="fil0" x="-3751.63" y="4428.19" width="3503.27" height="3503.27"/>
 <path class="fil1" d="M-2982.71 4999.66c0,-79.43 -64.4,-143.84 -143.84,-143.84 -79.43,0 -143.83,64.41 -143.83,143.84 0,79.44 64.4,143.84 143.83,143.84 79.44,0 143.84,-64.4 143.84,-143.84zm-384.34 -249.98l495.42 0 0 495.43 -149.9 0 0 -72.64 77.27 0 0 -350.14 -350.14 0 0 350.14 62.86 0 0 72.64 -135.5 0 0 -495.43zm241.31 415.43c44.16,0 80.29,36.14 80.29,80.29l-0.01 335.93c0,19.41 25.83,27.74 32.34,9.19 11.63,-33.13 43.7,-56.75 80.72,-56.75 47.19,0 85.82,38.62 85.82,85.82l0 42.08c0.76,17.68 13.55,13.21 16.45,0.39 10.2,-32.64 40.78,-56.49 76.67,-56.49 44.17,0 80.3,36.13 80.3,80.29l0 53.62c-0.41,12.42 11.44,14.82 13.22,5.53 1.52,-36.97 32.23,-66.73 69.55,-66.73 38.3,0 69.62,31.32 69.62,69.61 0,180.04 -0.25,359.99 -0.25,540.23 0,86.01 -50.12,132.57 -79.88,151.57l0 127.14 -627.13 0c-16.87,-142.54 -138.36,-314.62 -198.39,-449.03l0 -432.03c14.51,-14.5 26.93,-23.64 51.28,-27.82 79.93,-13.73 119.82,57.88 119.82,121.03l0 251.52 49.12 0 0.16 -785.09c0,-44.16 36.13,-80.29 80.29,-80.29z"/>
 <path class="fil1" d="M-1410.6 6703.19l-232.48 494.2c137.05,-33.3 259.22,-17.27 389.01,29.4l170.51 -362.46 222.31 245.23 1.28 154.68c32.45,-8.99 64.78,-20.6 96.98,-34.48 22.07,-9.51 42,-16.85 61.22,-22.46l-1.07 -129.03c-0.18,-19.6 -7.22,-38.18 -20.43,-52.75l-264.75 -292.05c-7.3,-8.06 -15.91,-14.26 -25.23,-18.59l-325.58 -153.28 -307.52 -191.48 -126.63 -344.57c-15.06,-40.97 -60.97,-62.07 -101.9,-46.97 -40.94,15.1 -62.02,60.94 -46.96,101.9l135.98 370c6.04,16.47 17.57,30.63 32.49,39.93l334.63 208.35c2.66,1.66 5.38,3.13 8.15,4.43zm-2031.85 536.79c209.19,-5.09 219.13,78.97 428.78,94.33 79.51,5.82 163.58,-4.67 250.18,-40.48 402.33,-166.34 505.07,39.38 772.16,41.06 266.96,1.68 369.49,-207.38 771.81,-41.06 163.8,67.72 323.82,47.6 476.33,-18.11 67.16,-28.94 107.78,-35.38 185.64,-35.05l-0.36 91.17c-64.44,-0.28 -93.7,4 -149.18,27.9 -174.28,75.08 -359.05,96.21 -547.12,18.47 -364.45,-150.67 -444.62,49.7 -737.49,47.85 -292.77,-1.85 -372.66,-198.53 -737.12,-47.85 -188.05,77.74 -372.85,56.61 -547.12,-18.47 -57.93,-24.95 -95.89,-30.25 -164.37,-28.59l-2.15 -91.17zm0 185.24c209.19,-5.09 219.13,78.97 428.78,94.32 79.51,5.83 163.58,-4.67 250.18,-40.47 402.33,-166.34 505.05,39.37 772.16,41.06 266.91,1.69 369.5,-207.38 771.81,-41.06 163.8,67.72 323.82,47.59 476.33,-18.11 67.16,-28.94 107.78,-35.37 185.64,-35.05l-0.36 91.17c-64.44,-0.28 -93.7,4 -149.18,27.9 -174.28,75.08 -359.05,96.21 -547.12,18.47 -364.45,-150.66 -444.62,49.7 -737.49,47.85 -292.77,-1.85 -372.66,-198.52 -737.12,-47.85 -188.05,77.74 -372.85,56.61 -547.12,-18.47 -57.92,-24.95 -95.9,-30.24 -164.37,-28.59l-2.15 -91.17zm2496.47 -904.11c37.77,-80.29 3.3,-175.99 -76.99,-213.76 -80.29,-37.77 -175.99,-3.3 -213.76,76.99 -37.77,80.28 -3.3,175.98 77,213.75 80.28,37.77 175.98,3.3 213.75,-76.98z"/>
</symbol>
 <g id="Ebene_x0020_1">
  <metadata id="CorelCorpID_0Corel-Layer"/>
  <use transform="scale(0.571429 0.571429)" y="-0" width="3503.27" height="3503.27" xlink:href="#ISO_x0020_7010_x0020_E069"/>
 </g>
</svg>
