<?xml version="1.0" encoding="UTF-8"?>
<!DOCTYPE svg PUBLIC "-//W3C//DTD SVG 1.1//EN" "http://www.w3.org/Graphics/SVG/1.1/DTD/svg11.dtd">
<!-- Creator: Corel DESIGNER -->
<svg xmlns="http://www.w3.org/2000/svg" xml:space="preserve" width="40mm" height="34.9578mm" version="1.1" style="shape-rendering:geometricPrecision; text-rendering:geometricPrecision; image-rendering:optimizeQuality; fill-rule:evenodd; clip-rule:evenodd"
viewBox="0 0 1007.57 880.56"
 xmlns:xlink="http://www.w3.org/1999/xlink"
 xmlns:xodm="http://www.corel.com/coreldraw/odm/2003">
 <defs>
  <style type="text/css">
   <![CDATA[
    .fil0 {fill:#F5CA2B}
    .fil1 {fill:#21251E}
   ]]>
  </style>
 </defs>
<symbol id="ISO_x0020_7010_x0020_W079" viewBox="1118.37 2406.98 1763.25 1540.98">
 <polygon class="fil0" points="2828.83,3894.7 1171.76,3894.71 2000.29,2459.63 "/>
 <path class="fil1" d="M1263.86 3841.81l736.14 -1275.02 736.13 1275.02 -1472.27 0zm1565.07 106.15l-1657.87 0c-40.59,0 -65.82,-43.7 -45.53,-78.86l828.93 -1435.76c20.3,-35.15 70.76,-35.15 91.06,0l828.93 1435.76c20.3,35.15 -4.94,78.86 -45.53,78.86z"/>
 <path class="fil1" d="M1878.86 2909.18l100.92 169.75 119.81 -30.52 48.31 -104.71 -165.92 -95.79 -103.12 61.27zm-106.57 230.72l117.6 -13.65 26.29 33.37 -13.63 74.7 -80.07 9.46 -48.78 -53 -1.41 -50.87zm119.25 245.75l-115.48 -55.35 -75.85 20.5 41.68 109.95 38.27 30.75 115.49 -32.74 -4.1 -73.12zm43.99 -91.5l2.48 75.1 45.78 1.96 49.2 -50.47 -13.67 -50.57 -55.1 2.12 -28.7 21.87zm-256.77 258.23l76.11 -4.78 13.67 38.27 -10.76 42.37 -66.46 31.66 -31.5 -34.61 18.93 -72.9zm-126.15 45.1l38.95 15.03 -4.38 43.26 -36.08 25.88 -34.05 -4.91 0 -47.83 35.55 -31.43zm367.89 18.08l-90.83 81.27 -437.64 43.76 -25.38 43.95 1266.71 -0 -438.09 -758.8 -16.62 154.79 -72.9 34.66 -19.12 156.56 -113.54 87.24 -52.59 156.56z"/>
</symbol>
 <g id="Ebene_x0020_1">
  <metadata id="CorelCorpID_0Corel-Layer"/>
  <use transform="scale(0.571429 0.571429)" y="0" width="1763.25" height="1540.98" xlink:href="#ISO_x0020_7010_x0020_W079"/>
 </g>
</svg>
