<?xml version="1.0" encoding="UTF-8"?>
<!DOCTYPE svg PUBLIC "-//W3C//DTD SVG 1.1//EN" "http://www.w3.org/Graphics/SVG/1.1/DTD/svg11.dtd">
<!-- Creator: Corel DESIGNER -->
<svg xmlns="http://www.w3.org/2000/svg" xml:space="preserve" width="40mm" height="34.9577mm" version="1.1" style="shape-rendering:geometricPrecision; text-rendering:geometricPrecision; image-rendering:optimizeQuality; fill-rule:evenodd; clip-rule:evenodd"
viewBox="0 0 1000 873.94"
 xmlns:xlink="http://www.w3.org/1999/xlink"
 xmlns:xodm="http://www.corel.com/coreldraw/odm/2003">
 <defs>
  <style type="text/css">
   <![CDATA[
    .fil0 {fill:#F5CA2B}
    .fil1 {fill:#21251E}
   ]]>
  </style>
 </defs>
<symbol id="ISO_x0020_7010_x0020_W076" viewBox="1125 -2442.51 1750 1529.4">
 <polygon class="fil0" points="2822.6,-965.97 1177.99,-965.97 2000.29,-2390.25 "/>
 <path class="fil1" d="M1269.4 -1018.46l730.6 -1265.43 730.6 1265.43 -1461.2 0zm1553.3 105.35l-1645.4 0c-40.29,0 -65.33,-43.37 -45.19,-78.26l822.7 -1424.97c20.14,-34.89 70.23,-34.89 90.38,0l822.7 1424.97c20.14,34.89 -4.9,78.26 -45.19,78.26z"/>
 <path class="fil1" d="M1699.12 -1297.47l72.13 46.6 -22.34 163.4 -97.02 -38.93 -30 -75.96 77.24 -95.11zm148.09 177.45l55.53 58.72 46.6 -26.81 -3.19 -54.26 -57.45 -16.6 -41.49 38.94zm112.98 -177.45l37.02 87.45 86.81 -37.02 19.79 -64.47 -81.06 -67.02 -62.55 81.06zm-64.43 -349.46c96.06,34.28 106.96,92.58 89.08,146.69 -25.36,76.71 -110,145.78 -89.08,221.65 -63.68,-71.88 -21.69,-129.14 13.84,-189.61 21.43,-36.48 45.46,-80.07 32.21,-122.44 -6.03,-19.27 -30.48,-32.72 -46.05,-56.3zm385.3 461.15c-39.34,-52.13 -62.16,-102.76 -87.85,-187.78 -25.69,-85.02 -67.61,-176.74 -141.71,-180.44 46.21,55.34 71.56,104.17 88.42,173.3 16.86,69.13 54.25,154.83 141.13,194.92zm-76.37 -316.01c52.45,63.42 104.89,126.85 157.34,190.27l101.23 21.95 -85.38 57.33 10.98 109.77 121.97 32.93 41.47 -93.91 251.03 217.48 19.28 0 -440.06 -762.21 -281.13 -241.13c-20.81,-17.85 -51.62,-16.75 -71.11,2.53l-83.14 82.28 -37.93 -41.79c-19,-20.93 -51.2,-23.06 -72.79,-4.79l-197.96 167.53 -460.48 797.59 19.13 0 319.85 -196.75 46.35 -175.63 185.2 -75.62 111 -173.92c24.71,-38.71 -75.46,-77.35 -68.69,-132.25 5.51,-44.72 41.73,-79.31 97.47,-95.2 -42.24,27.95 -47.24,47.04 -48.3,59.86 -2.09,25.26 25.69,50.15 50.01,57.32 109.33,32.24 173.63,49.86 289.49,107.7 11.83,5.9 23.95,9.13 25.84,29.82 1.6,17.61 -0.65,45.65 -0.65,58.85zm43.21 421.85l-103.09 -56.39 -56.39 76.4 72.66 93.96 70.19 0 16.63 -113.97z"/>
</symbol>
 <g id="Ebene_x0020_1">
  <metadata id="CorelCorpID_0Corel-Layer"/>
  <use transform="scale(0.571429 0.571429)" y="0" width="1750" height="1529.4" xlink:href="#ISO_x0020_7010_x0020_W076"/>
 </g>
</svg>
