<svg width="44" height="9" viewBox="0 0 44 9" fill="none" xmlns="http://www.w3.org/2000/svg">
<path d="M0.952 8V0.944H2.212L2.31 1.938C2.534 1.574 2.83267 1.28933 3.206 1.084C3.57933 0.878666 3.99933 0.776 4.466 0.776C4.82067 0.776 5.14267 0.827333 5.432 0.93C5.72133 1.02333 5.978 1.168 6.202 1.364C6.426 1.56 6.608 1.80267 6.748 2.092C7 1.68133 7.336 1.35933 7.756 1.126C8.18533 0.892666 8.638 0.776 9.114 0.776C9.68333 0.776 10.1733 0.892666 10.584 1.126C10.9947 1.35 11.3073 1.69067 11.522 2.148C11.7367 2.596 11.844 3.156 11.844 3.828V8H10.458V3.968C10.458 3.31467 10.3227 2.82 10.052 2.484C9.79067 2.148 9.40333 1.98 8.89 1.98C8.54467 1.98 8.23667 2.06867 7.966 2.246C7.69533 2.42333 7.48067 2.68 7.322 3.016C7.17267 3.352 7.098 3.76267 7.098 4.248V8H5.698V3.968C5.698 3.31467 5.56267 2.82 5.292 2.484C5.03067 2.148 4.64333 1.98 4.13 1.98C3.80333 1.98 3.50467 2.06867 3.234 2.246C2.96333 2.42333 2.74867 2.68 2.59 3.016C2.43133 3.352 2.352 3.76267 2.352 4.248V8H0.952ZM16.8732 8.168C16.2105 8.168 15.6132 8.014 15.0812 7.706C14.5585 7.398 14.1432 6.96867 13.8352 6.418C13.5365 5.858 13.3872 5.214 13.3872 4.486C13.3872 3.73933 13.5412 3.09067 13.8492 2.54C14.1572 1.98 14.5772 1.546 15.1092 1.238C15.6412 0.93 16.2385 0.776 16.9012 0.776C17.5732 0.776 18.1705 0.93 18.6932 1.238C19.2158 1.546 19.6265 1.97533 19.9252 2.526C20.2332 3.07667 20.3872 3.72533 20.3872 4.472C20.3872 5.21867 20.2332 5.86733 19.9252 6.418C19.6265 6.96867 19.2112 7.398 18.6792 7.706C18.1472 8.014 17.5452 8.168 16.8732 8.168ZM16.8732 6.964C17.2558 6.964 17.6012 6.87067 17.9092 6.684C18.2265 6.49733 18.4785 6.222 18.6652 5.858C18.8612 5.48467 18.9592 5.02267 18.9592 4.472C18.9592 3.92133 18.8658 3.464 18.6792 3.1C18.4925 2.72667 18.2405 2.44667 17.9232 2.26C17.6152 2.07333 17.2745 1.98 16.9012 1.98C16.5278 1.98 16.1825 2.07333 15.8652 2.26C15.5478 2.44667 15.2912 2.72667 15.0952 3.1C14.9085 3.464 14.8152 3.92133 14.8152 4.472C14.8152 5.02267 14.9085 5.48467 15.0952 5.858C15.2912 6.222 15.5432 6.49733 15.8512 6.684C16.1685 6.87067 16.5092 6.964 16.8732 6.964ZM24.624 8.168C24.0734 8.168 23.5927 8.056 23.182 7.832C22.7807 7.608 22.468 7.272 22.244 6.824C22.0294 6.376 21.922 5.81133 21.922 5.13V0.944H23.322V4.976C23.322 5.63867 23.4667 6.138 23.756 6.474C24.0454 6.81 24.4607 6.978 25.002 6.978C25.366 6.978 25.6927 6.88933 25.982 6.712C26.2807 6.53467 26.514 6.278 26.682 5.942C26.85 5.606 26.934 5.19533 26.934 4.71V0.944H28.334V8H27.088L26.99 6.796C26.7754 7.22533 26.4627 7.56133 26.052 7.804C25.6414 8.04667 25.1654 8.168 24.624 8.168ZM32.9808 8.168C32.3835 8.168 31.8608 8.07 31.4128 7.874C30.9648 7.678 30.6102 7.40267 30.3488 7.048C30.0875 6.69333 29.9288 6.278 29.8728 5.802H31.3008C31.3475 6.026 31.4362 6.23133 31.5668 6.418C31.7068 6.60467 31.8935 6.754 32.1268 6.866C32.3695 6.978 32.6542 7.034 32.9808 7.034C33.2888 7.034 33.5408 6.992 33.7368 6.908C33.9422 6.81467 34.0915 6.69333 34.1848 6.544C34.2782 6.38533 34.3248 6.21733 34.3248 6.04C34.3248 5.77867 34.2595 5.58267 34.1288 5.452C34.0075 5.312 33.8208 5.20467 33.5688 5.13C33.3262 5.046 33.0322 4.97133 32.6868 4.906C32.3602 4.85 32.0428 4.77533 31.7348 4.682C31.4362 4.57933 31.1655 4.45333 30.9228 4.304C30.6895 4.15467 30.5028 3.968 30.3628 3.744C30.2228 3.51067 30.1528 3.226 30.1528 2.89C30.1528 2.48867 30.2602 2.12933 30.4748 1.812C30.6895 1.48533 30.9928 1.23333 31.3848 1.056C31.7862 0.869333 32.2575 0.776 32.7988 0.776C33.5828 0.776 34.2128 0.962666 34.6888 1.336C35.1648 1.70933 35.4448 2.23667 35.5288 2.918H34.1708C34.1335 2.60067 33.9935 2.358 33.7508 2.19C33.5082 2.01267 33.1862 1.924 32.7848 1.924C32.3835 1.924 32.0755 2.00333 31.8608 2.162C31.6462 2.32067 31.5388 2.53067 31.5388 2.792C31.5388 2.96 31.5995 3.10933 31.7208 3.24C31.8422 3.37067 32.0195 3.48267 32.2528 3.576C32.4955 3.66 32.7895 3.73933 33.1348 3.814C33.6295 3.90733 34.0728 4.024 34.4648 4.164C34.8568 4.304 35.1695 4.50933 35.4028 4.78C35.6362 5.05067 35.7528 5.438 35.7528 5.942C35.7622 6.38067 35.6502 6.768 35.4168 7.104C35.1928 7.44 34.8708 7.70133 34.4508 7.888C34.0402 8.07467 33.5502 8.168 32.9808 8.168ZM40.5932 8.168C39.9212 8.168 39.3239 8.014 38.8012 7.706C38.2786 7.398 37.8679 6.96867 37.5692 6.418C37.2799 5.86733 37.1352 5.228 37.1352 4.5C37.1352 3.75333 37.2799 3.10467 37.5692 2.554C37.8679 1.994 38.2786 1.56 38.8012 1.252C39.3239 0.934666 39.9306 0.776 40.6212 0.776C41.3119 0.776 41.9046 0.93 42.3992 1.238C42.8939 1.546 43.2766 1.95667 43.5472 2.47C43.8179 2.974 43.9532 3.534 43.9532 4.15C43.9532 4.24333 43.9486 4.346 43.9392 4.458C43.9392 4.56067 43.9346 4.67733 43.9252 4.808H38.1572V3.814H42.5532C42.5252 3.226 42.3292 2.76867 41.9652 2.442C41.6012 2.106 41.1486 1.938 40.6072 1.938C40.2246 1.938 39.8746 2.02667 39.5572 2.204C39.2399 2.372 38.9832 2.624 38.7872 2.96C38.6006 3.28667 38.5072 3.702 38.5072 4.206V4.598C38.5072 5.12067 38.6006 5.564 38.7872 5.928C38.9832 6.28267 39.2399 6.55333 39.5572 6.74C39.8746 6.91733 40.2199 7.006 40.5932 7.006C41.0412 7.006 41.4099 6.908 41.6992 6.712C41.9886 6.516 42.2032 6.25 42.3432 5.914H43.7432C43.6219 6.34333 43.4166 6.73067 43.1272 7.076C42.8379 7.412 42.4786 7.678 42.0492 7.874C41.6292 8.07 41.1439 8.168 40.5932 8.168Z" fill="#101828"/>
</svg>
