<svg width="142" height="32" viewBox="0 0 142 32" fill="none" xmlns="http://www.w3.org/2000/svg">
    <path fill-rule="evenodd" clip-rule="evenodd" d="M15.363 13.79a4.412 4.412 0 0 1 2.41-.713l-.001.001a4.43 4.43 0 1 1-2.937 1.115l-2.21-3.075c-.35.167-.742.262-1.157.262a2.711 2.711 0 0 1-2.71-2.697H6.232A2.312 2.312 0 1 1 2.949 6.39L2.26 3.453a1.256 1.256 0 1 1 .373-.15l.691 2.949a2.313 2.313 0 0 1 2.907 2.034h2.557a2.708 2.708 0 0 1 5.39.383c0 .844-.386 1.598-.992 2.095l2.177 3.027zM8.129 4.74a1.256 1.256 0 1 0 0-2.512 1.256 1.256 0 0 0 0 2.512zm2.512 12.304a1.653 1.653 0 1 0 0-3.305 1.653 1.653 0 0 0 0 3.305z" fill="#FAC515"/>
    <path d="m28.625 17.612-.468-3.29c.098-.032 2.018-2.204 2.09-2.286l-1.715-2.9c-.106.022-2.934.658-3.01.728l-2.656-1.995c.048-.092-.132-2.986-.139-3.093l-3.263-.838c-.058.091-1.609 2.54-1.612 2.643l-2.053.292c.238.566.369 1.187.369 1.84 0 .725-.163 1.413-.454 2.027l.83 1.115a5.752 5.752 0 1 1-4.534 6.272 3.041 3.041 0 0 1-2.972-5.287 4.802 4.802 0 0 1-.839-.616l-.088.117c-.092-.047-2.986.133-3.093.14l-.838 3.262c.091.059 2.54 1.61 2.643 1.612l.468 3.29c-.098.032-2.018 2.204-2.09 2.286l1.716 2.9c.105-.022 2.934-.658 3.009-.728l2.656 1.995c-.047.091.132 2.986.139 3.093l3.263.838c.058-.091 1.61-2.54 1.612-2.643l3.29-.468c.031.098 2.204 2.018 2.285 2.09l2.901-1.716c-.022-.106-.658-2.934-.728-3.009l1.995-2.656c.091.047 2.985-.133 3.093-.14l.838-3.262c-.091-.058-2.54-1.61-2.643-1.612l-.002-.001z" fill="#0C111D"/>
    <path fill-rule="evenodd" clip-rule="evenodd" d="M94.708 6.821h4.252v2.47h-4.252v-2.47zm.072 3.92h4.085v11.876H94.78V10.74zm-51.283-.38c-4.56 0-6.556 2.85-6.556 6.294 0 3.254 1.734 6.342 6.556 6.342 4.323 0 5.962-1.924 6.342-3.967h-3.967c-.332.713-1.069 1.235-2.28 1.235-1.496 0-2.447-.641-2.684-2.541h8.907c.048-.262.072-.618.072-.998 0-3.302-1.544-6.366-6.39-6.366zm.071 2.683c1.568 0 2.304.808 2.447 2.304h-5.06c.262-1.71 1.046-2.304 2.613-2.304zm12.21-2.304h-4.086v11.877h4.085v-5.582c0-2.328.95-3.373 2.59-3.373 1.425 0 2.066.855 2.066 2.423v6.532h4.085v-7.221c0-3.112-1.377-5.036-4.465-5.036-2.138 0-3.492 1.022-4.276 2.59v-2.21zm13.586 0 2.85 8.789 2.85-8.789h3.872l-3.943 11.877H69.15L65.207 10.74h4.157zm16.746-.38c-5.06 0-6.817 3.136-6.817 6.319 0 3.206 1.781 6.318 6.817 6.318 5.035 0 6.793-3.136 6.793-6.319 0-3.182-1.734-6.318-6.793-6.318zm2.708 6.319c0 2.375-.784 3.135-2.708 3.135-1.948 0-2.732-.76-2.732-3.136 0-2.375.808-3.135 2.732-3.135 1.924 0 2.708.76 2.708 3.136zM105.54 6.82h-4.252v2.47h4.252v-2.47zm-.095 3.92h-4.086v11.876h4.086V10.74z" fill="#0C111D"/>
</svg>
