<svg width="31" height="31" viewBox="0 0 31 31" fill="none" xmlns="http://www.w3.org/2000/svg">
    <path fill-rule="evenodd" clip-rule="evenodd" d="M14.633 12.878a4.41 4.41 0 0 1 2.41-.714l-.002.001a4.43 4.43 0 1 1-2.936 1.115l-2.21-3.074c-.351.167-.742.262-1.158.262A2.711 2.711 0 0 1 8.028 7.77H5.502a2.312 2.312 0 1 1-3.283-2.293l-.69-2.938a1.256 1.256 0 1 1 .373-.15l.692 2.95c.193-.053.395-.083.604-.083 1.21 0 2.203.93 2.304 2.116h2.555a2.708 2.708 0 0 1 5.39.383c0 .845-.385 1.598-.99 2.096l2.175 3.026zM7.399 3.826a1.256 1.256 0 1 0 0-2.512 1.256 1.256 0 0 0 0 2.512zM9.91 16.131a1.653 1.653 0 1 0 0-3.306 1.653 1.653 0 0 0 0 3.306z" fill="#FAC515"/>
    <path d="m27.895 16.7-.468-3.29c.098-.032 2.018-2.204 2.09-2.286L27.8 8.223c-.105.022-2.934.658-3.009.728l-2.656-1.995c.047-.091-.132-2.985-.139-3.092l-3.263-.839c-.058.091-1.61 2.54-1.612 2.643l-2.053.292c.238.566.369 1.188.369 1.841a4.73 4.73 0 0 1-.454 2.027l.83 1.114a5.752 5.752 0 1 1-4.534 6.272 3.041 3.041 0 0 1-2.972-5.287 4.808 4.808 0 0 1-.84-.616l-.088.118c-.09-.048-2.985.132-3.092.139L3.45 14.83c.09.058 2.54 1.609 2.643 1.612l.468 3.29c-.098.031-2.018 2.203-2.09 2.285l1.715 2.901c.106-.022 2.934-.658 3.01-.728l2.656 1.995c-.048.091.132 2.985.139 3.092l3.263.839c.058-.092 1.609-2.54 1.612-2.643l3.29-.468c.03.097 2.203 2.017 2.285 2.088l2.901-1.714c-.022-.106-.658-2.934-.729-3.01l1.996-2.656c.09.048 2.985-.132 3.092-.139l.838-3.263c-.09-.058-2.54-1.609-2.643-1.611v-.002z" fill="#fff"/>
</svg>
