<svg width="29" height="13" viewBox="0 0 29 13" fill="none" xmlns="http://www.w3.org/2000/svg">
<path d="M3.682 9.168C3.08467 9.168 2.562 9.07 2.114 8.874C1.666 8.678 1.31133 8.40267 1.05 8.048C0.788667 7.69333 0.63 7.278 0.574 6.802H2.002C2.04867 7.026 2.13733 7.23133 2.268 7.418C2.408 7.60467 2.59467 7.754 2.828 7.866C3.07067 7.978 3.35533 8.034 3.682 8.034C3.99 8.034 4.242 7.992 4.438 7.908C4.64333 7.81467 4.79267 7.69333 4.886 7.544C4.97933 7.38533 5.026 7.21733 5.026 7.04C5.026 6.77867 4.96067 6.58267 4.83 6.452C4.70867 6.312 4.522 6.20467 4.27 6.13C4.02733 6.046 3.73333 5.97133 3.388 5.906C3.06133 5.85 2.744 5.77533 2.436 5.682C2.13733 5.57933 1.86667 5.45333 1.624 5.304C1.39067 5.15467 1.204 4.968 1.064 4.744C0.924 4.51067 0.854 4.226 0.854 3.89C0.854 3.48867 0.961333 3.12933 1.176 2.812C1.39067 2.48533 1.694 2.23333 2.086 2.056C2.48733 1.86933 2.95867 1.776 3.5 1.776C4.284 1.776 4.914 1.96267 5.39 2.336C5.866 2.70933 6.146 3.23667 6.23 3.918H4.872C4.83467 3.60067 4.69467 3.358 4.452 3.19C4.20933 3.01267 3.88733 2.924 3.486 2.924C3.08467 2.924 2.77667 3.00333 2.562 3.162C2.34733 3.32067 2.24 3.53067 2.24 3.792C2.24 3.96 2.30067 4.10933 2.422 4.24C2.54333 4.37067 2.72067 4.48267 2.954 4.576C3.19667 4.66 3.49067 4.73933 3.836 4.814C4.33067 4.90733 4.774 5.024 5.166 5.164C5.558 5.304 5.87067 5.50933 6.104 5.78C6.33733 6.05067 6.454 6.438 6.454 6.942C6.46333 7.38067 6.35133 7.768 6.118 8.104C5.894 8.44 5.572 8.70133 5.152 8.888C4.74133 9.07467 4.25133 9.168 3.682 9.168ZM10.727 9C10.2883 9 9.90562 8.93 9.57895 8.79C9.25229 8.65 9.00029 8.41667 8.82295 8.09C8.64562 7.76333 8.55695 7.32 8.55695 6.76V3.134H7.33895V1.944H8.55695L8.72495 0.179999H9.95695V1.944H11.959V3.134H9.95695V6.774C9.95695 7.17533 10.041 7.45067 10.209 7.6C10.377 7.74 10.6663 7.81 11.077 7.81H11.889V9H10.727ZM16.5314 9.168C15.8687 9.168 15.2714 9.014 14.7394 8.706C14.2167 8.398 13.8014 7.96867 13.4934 7.418C13.1947 6.858 13.0454 6.214 13.0454 5.486C13.0454 4.73933 13.1994 4.09067 13.5074 3.54C13.8154 2.98 14.2354 2.546 14.7674 2.238C15.2994 1.93 15.8967 1.776 16.5594 1.776C17.2314 1.776 17.8287 1.93 18.3514 2.238C18.874 2.546 19.2847 2.97533 19.5834 3.526C19.8914 4.07667 20.0454 4.72533 20.0454 5.472C20.0454 6.21867 19.8914 6.86733 19.5834 7.418C19.2847 7.96867 18.8694 8.398 18.3374 8.706C17.8054 9.014 17.2034 9.168 16.5314 9.168ZM16.5314 7.964C16.914 7.964 17.2594 7.87067 17.5674 7.684C17.8847 7.49733 18.1367 7.222 18.3234 6.858C18.5194 6.48467 18.6174 6.02267 18.6174 5.472C18.6174 4.92133 18.524 4.464 18.3374 4.1C18.1507 3.72667 17.8987 3.44667 17.5814 3.26C17.2734 3.07333 16.9327 2.98 16.5594 2.98C16.186 2.98 15.8407 3.07333 15.5234 3.26C15.206 3.44667 14.9494 3.72667 14.7534 4.1C14.5667 4.464 14.4734 4.92133 14.4734 5.472C14.4734 6.02267 14.5667 6.48467 14.7534 6.858C14.9494 7.222 15.2014 7.49733 15.5094 7.684C15.8267 7.87067 16.1674 7.964 16.5314 7.964ZM21.6922 12.08V1.944H22.9522L23.0922 3.036C23.2416 2.82133 23.4282 2.62067 23.6522 2.434C23.8762 2.238 24.1422 2.07933 24.4502 1.958C24.7676 1.83667 25.1362 1.776 25.5562 1.776C26.2282 1.776 26.8162 1.93933 27.3202 2.266C27.8336 2.59267 28.2302 3.036 28.5102 3.596C28.7996 4.14667 28.9442 4.77667 28.9442 5.486C28.9442 6.19533 28.7996 6.83 28.5102 7.39C28.2209 7.94067 27.8196 8.37467 27.3062 8.692C26.8022 9.00933 26.2142 9.168 25.5422 9.168C24.9916 9.168 24.5062 9.06067 24.0862 8.846C23.6662 8.622 23.3349 8.314 23.0922 7.922V12.08H21.6922ZM25.3182 7.95C25.7476 7.95 26.1256 7.84733 26.4522 7.642C26.7882 7.43667 27.0496 7.14733 27.2362 6.774C27.4322 6.40067 27.5302 5.96667 27.5302 5.472C27.5302 4.97733 27.4322 4.548 27.2362 4.184C27.0496 3.81067 26.7882 3.52133 26.4522 3.316C26.1256 3.10133 25.7476 2.994 25.3182 2.994C24.8796 2.994 24.4922 3.10133 24.1562 3.316C23.8296 3.52133 23.5729 3.81067 23.3862 4.184C23.1996 4.548 23.1062 4.97733 23.1062 5.472C23.1062 5.96667 23.1996 6.40067 23.3862 6.774C23.5729 7.14733 23.8296 7.43667 24.1562 7.642C24.4922 7.84733 24.8796 7.95 25.3182 7.95Z" fill="#101828"/>
</svg>
