<svg width="38" height="11" viewBox="0 0 38 11" fill="none" xmlns="http://www.w3.org/2000/svg">
<path d="M3.85 10C3.41133 10 3.02867 9.93 2.702 9.79C2.37533 9.65 2.12333 9.41667 1.946 9.09C1.76867 8.76333 1.68 8.32 1.68 7.76V4.134H0.462V2.944H1.68L1.848 1.18H3.08V2.944H5.082V4.134H3.08V7.774C3.08 8.17533 3.164 8.45067 3.332 8.6C3.5 8.74 3.78933 8.81 4.2 8.81H5.012V10H3.85ZM8.62783 10L5.98183 2.944H7.45183L9.45383 8.656L11.4698 2.944H12.9118L10.2798 10H8.62783ZM14.2567 6.458V5.282H19.9127V6.458H14.2567ZM25.7893 10.168C24.9213 10.168 24.1746 9.958 23.5493 9.538C22.924 9.10867 22.4433 8.516 22.1073 7.76C21.7713 6.99467 21.6033 6.108 21.6033 5.1C21.6033 4.092 21.7713 3.21 22.1073 2.454C22.4433 1.68867 22.924 1.096 23.5493 0.676C24.1746 0.246667 24.9213 0.0319998 25.7893 0.0319998C26.6573 0.0319998 27.3993 0.246667 28.0153 0.676C28.6406 1.096 29.1166 1.68867 29.4433 2.454C29.7793 3.21 29.9473 4.092 29.9473 5.1C29.9473 6.108 29.7793 6.99467 29.4433 7.76C29.1166 8.516 28.6406 9.10867 28.0153 9.538C27.3993 9.958 26.6573 10.168 25.7893 10.168ZM25.7893 8.922C26.312 8.922 26.7786 8.768 27.1893 8.46C27.6093 8.152 27.936 7.71333 28.1693 7.144C28.4026 6.57467 28.5193 5.89333 28.5193 5.1C28.5193 4.30667 28.4026 3.62533 28.1693 3.056C27.936 2.48667 27.6093 2.05267 27.1893 1.754C26.7786 1.446 26.312 1.292 25.7893 1.292C25.2573 1.292 24.7813 1.446 24.3613 1.754C23.9413 2.05267 23.6146 2.48667 23.3813 3.056C23.148 3.62533 23.0313 4.30667 23.0313 5.1C23.0313 5.89333 23.148 6.57467 23.3813 7.144C23.6146 7.71333 23.9413 8.152 24.3613 8.46C24.7813 8.768 25.2573 8.922 25.7893 8.922ZM31.328 10V8.992C31.9813 8.488 32.602 7.97933 33.19 7.466C33.778 6.95267 34.3006 6.444 34.758 5.94C35.2246 5.42667 35.5886 4.92733 35.85 4.442C36.1113 3.94733 36.242 3.476 36.242 3.028C36.242 2.71067 36.186 2.41667 36.074 2.146C35.962 1.87533 35.7846 1.656 35.542 1.488C35.2993 1.31067 34.968 1.222 34.548 1.222C34.1466 1.222 33.8106 1.31067 33.54 1.488C33.2786 1.66533 33.078 1.90333 32.938 2.202C32.8073 2.49133 32.742 2.81333 32.742 3.168H31.384C31.3933 2.496 31.538 1.92667 31.818 1.46C32.098 0.993333 32.476 0.638666 32.952 0.395999C33.4373 0.153333 33.9786 0.0319998 34.576 0.0319998C35.2013 0.0319998 35.7426 0.148666 36.2 0.381999C36.6573 0.605999 37.012 0.937333 37.264 1.376C37.516 1.80533 37.642 2.33267 37.642 2.958C37.642 3.406 37.5533 3.854 37.376 4.302C37.1986 4.74067 36.956 5.17 36.648 5.59C36.3493 6.01 36.0133 6.416 35.64 6.808C35.2666 7.19067 34.8793 7.55467 34.478 7.9C34.086 8.24533 33.708 8.558 33.344 8.838H37.95V10H31.328Z" fill="#101828"/>
</svg>
