<svg width="39" height="11" viewBox="0 0 39 11" fill="none" xmlns="http://www.w3.org/2000/svg">
<path d="M3.85 10C3.41133 10 3.02867 9.93 2.702 9.79C2.37533 9.65 2.12333 9.41667 1.946 9.09C1.76867 8.76333 1.68 8.32 1.68 7.76V4.134H0.462V2.944H1.68L1.848 1.18H3.08V2.944H5.082V4.134H3.08V7.774C3.08 8.17533 3.164 8.45067 3.332 8.6C3.5 8.74 3.78933 8.81 4.2 8.81H5.012V10H3.85ZM8.62783 10L5.98183 2.944H7.45183L9.45383 8.656L11.4698 2.944H12.9118L10.2798 10H8.62783ZM14.2567 6.458V5.282H19.9127V6.458H14.2567ZM25.7893 10.168C24.9213 10.168 24.1746 9.958 23.5493 9.538C22.924 9.10867 22.4433 8.516 22.1073 7.76C21.7713 6.99467 21.6033 6.108 21.6033 5.1C21.6033 4.092 21.7713 3.21 22.1073 2.454C22.4433 1.68867 22.924 1.096 23.5493 0.676C24.1746 0.246667 24.9213 0.0319998 25.7893 0.0319998C26.6573 0.0319998 27.3993 0.246667 28.0153 0.676C28.6406 1.096 29.1166 1.68867 29.4433 2.454C29.7793 3.21 29.9473 4.092 29.9473 5.1C29.9473 6.108 29.7793 6.99467 29.4433 7.76C29.1166 8.516 28.6406 9.10867 28.0153 9.538C27.3993 9.958 26.6573 10.168 25.7893 10.168ZM25.7893 8.922C26.312 8.922 26.7786 8.768 27.1893 8.46C27.6093 8.152 27.936 7.71333 28.1693 7.144C28.4026 6.57467 28.5193 5.89333 28.5193 5.1C28.5193 4.30667 28.4026 3.62533 28.1693 3.056C27.936 2.48667 27.6093 2.05267 27.1893 1.754C26.7786 1.446 26.312 1.292 25.7893 1.292C25.2573 1.292 24.7813 1.446 24.3613 1.754C23.9413 2.05267 23.6146 2.48667 23.3813 3.056C23.148 3.62533 23.0313 4.30667 23.0313 5.1C23.0313 5.89333 23.148 6.57467 23.3813 7.144C23.6146 7.71333 23.9413 8.152 24.3613 8.46C24.7813 8.768 25.2573 8.922 25.7893 8.922ZM34.7413 10.168C34.116 10.168 33.542 10.056 33.0193 9.832C32.506 9.59867 32.0953 9.25333 31.7873 8.796C31.4887 8.32933 31.33 7.746 31.3113 7.046H32.7113C32.7207 7.40067 32.8047 7.72267 32.9633 8.012C33.122 8.30133 33.3507 8.53467 33.6493 8.712C33.9573 8.88 34.3213 8.964 34.7413 8.964C35.1613 8.964 35.5113 8.88467 35.7913 8.726C36.0807 8.56733 36.2953 8.35267 36.4353 8.082C36.5847 7.81133 36.6593 7.508 36.6593 7.172C36.6593 6.752 36.5567 6.41133 36.3513 6.15C36.1553 5.88867 35.8847 5.69267 35.5393 5.562C35.2033 5.43133 34.8253 5.366 34.4053 5.366H33.6773V4.19H34.4053C34.9933 4.19 35.46 4.05467 35.8053 3.784C36.16 3.51333 36.3373 3.13067 36.3373 2.636C36.3373 2.22533 36.202 1.88933 35.9313 1.628C35.6607 1.36667 35.264 1.236 34.7413 1.236C34.2187 1.236 33.8033 1.38533 33.4953 1.684C33.1967 1.98267 33.0287 2.36067 32.9913 2.818H31.6053C31.6333 2.26733 31.778 1.782 32.0393 1.362C32.31 0.932666 32.674 0.605999 33.1313 0.381999C33.598 0.148666 34.1347 0.0319998 34.7413 0.0319998C35.3947 0.0319998 35.9407 0.148666 36.3793 0.381999C36.8273 0.605999 37.1633 0.909333 37.3873 1.292C37.6207 1.67467 37.7373 2.09467 37.7373 2.552C37.7373 2.89733 37.672 3.21933 37.5413 3.518C37.4107 3.80733 37.224 4.05933 36.9813 4.274C36.7387 4.48867 36.4447 4.64267 36.0993 4.736C36.4727 4.81067 36.8087 4.95533 37.1073 5.17C37.406 5.38467 37.6393 5.66467 37.8073 6.01C37.9753 6.346 38.0593 6.738 38.0593 7.186C38.0593 7.718 37.9333 8.21267 37.6813 8.67C37.4293 9.118 37.056 9.482 36.5613 9.762C36.076 10.0327 35.4693 10.168 34.7413 10.168Z" fill="#101828"/>
</svg>
