<svg width="22" height="11" viewBox="0 0 22 11" fill="none" xmlns="http://www.w3.org/2000/svg">
<path d="M2.38 11L0.308 3.944H1.694L3.234 9.824L2.968 9.81L4.676 3.944H6.244L7.952 9.81L7.686 9.824L9.212 3.944H10.626L8.554 11H7.112L5.32 4.882H5.6L3.808 11H2.38ZM11.9875 11V3.944H13.3875V11H11.9875ZM12.7015 2.614C12.4308 2.614 12.2068 2.53 12.0295 2.362C11.8615 2.194 11.7775 1.97933 11.7775 1.718C11.7775 1.466 11.8615 1.26067 12.0295 1.102C12.2068 0.934 12.4308 0.85 12.7015 0.85C12.9628 0.85 13.1822 0.934 13.3595 1.102C13.5368 1.26067 13.6255 1.466 13.6255 1.718C13.6255 1.97933 13.5368 2.194 13.3595 2.362C13.1822 2.53 12.9628 2.614 12.7015 2.614ZM15.7675 11V5.134H14.7315V3.944H15.7675V2.992C15.7675 2.50667 15.8468 2.11 16.0055 1.802C16.1735 1.494 16.4162 1.27 16.7335 1.13C17.0508 0.99 17.4335 0.92 17.8815 0.92H18.6095V2.11H18.1055C17.7695 2.11 17.5268 2.18 17.3775 2.32C17.2375 2.45067 17.1675 2.684 17.1675 3.02V3.944H21.4655V11H20.0655V5.134H17.1675V11H15.7675ZM20.7795 2.726C20.5182 2.726 20.2988 2.642 20.1215 2.474C19.9442 2.306 19.8555 2.09133 19.8555 1.83C19.8555 1.578 19.9442 1.37267 20.1215 1.214C20.2988 1.046 20.5182 0.962 20.7795 0.962C21.0502 0.962 21.2695 1.046 21.4375 1.214C21.6148 1.37267 21.7035 1.578 21.7035 1.83C21.7035 2.09133 21.6148 2.306 21.4375 2.474C21.2695 2.642 21.0502 2.726 20.7795 2.726Z" fill="#101828"/>
</svg>
