<svg width="31" height="31" viewBox="0 0 31 31" fill="none" xmlns="http://www.w3.org/2000/svg">
    <path fill-rule="evenodd" clip-rule="evenodd" d="M14.633 12.82a4.41 4.41 0 0 1 2.41-.714l-.002.001a4.43 4.43 0 1 1-2.936 1.115l-2.21-3.074a2.711 2.711 0 0 1-3.866-2.435H5.501A2.312 2.312 0 1 1 2.219 5.42l-.69-2.938a1.256 1.256 0 1 1 .373-.15l.692 2.949a2.313 2.313 0 0 1 2.907 2.034h2.556a2.708 2.708 0 0 1 5.39.383c0 .845-.385 1.598-.99 2.095l2.175 3.027zM7.399 3.768a1.256 1.256 0 1 0 0-2.512 1.256 1.256 0 0 0 0 2.512zM9.91 16.072a1.653 1.653 0 1 0 0-3.305 1.653 1.653 0 0 0 0 3.305z" fill="#FAC515"/>
    <path d="m27.895 16.64-.468-3.289c.098-.031 2.018-2.204 2.09-2.286l-1.716-2.9c-.105.022-2.934.658-3.009.728l-2.656-1.995c.047-.091-.132-2.986-.139-3.093l-3.263-.838c-.058.091-1.61 2.54-1.612 2.643l-2.053.292c.238.566.369 1.188.369 1.84a4.73 4.73 0 0 1-.454 2.028l.83 1.114a5.752 5.752 0 1 1-4.534 6.272 3.041 3.041 0 0 1-2.972-5.287 4.803 4.803 0 0 1-.84-.616l-.088.118c-.09-.048-2.985.132-3.092.138l-.838 3.264c.09.058 2.54 1.609 2.643 1.611l.468 3.29c-.098.032-2.018 2.204-2.09 2.286l1.715 2.9c.106-.022 2.934-.658 3.01-.728l2.656 1.995c-.048.092.132 2.986.139 3.093l3.263.838c.058-.09 1.609-2.54 1.612-2.643l3.29-.468c.03.098 2.203 2.018 2.285 2.09l2.901-1.716c-.022-.105-.658-2.934-.729-3.009l1.996-2.656c.09.047 2.985-.132 3.092-.139l.838-3.263c-.09-.058-2.54-1.61-2.643-1.612v-.001z" fill="#0C111D"/>
</svg>
